<svg width="988" height="417" viewBox="0 0 988 417" fill="none" xmlns="http://www.w3.org/2000/svg">
<g clip-path="url(#clip0_78_6)">
<path d="M984.874 3.323H3.11182V311.556H984.874V3.323Z" fill="#FCB85E" stroke="black" stroke-width="4.47" stroke-miterlimit="10"/>
<path d="M145.816 311.556C141.253 311.556 132.266 293.503 130.591 290.515C119.748 271.149 114.264 249.13 106.784 228.34C102.597 216.71 99.5689 204.074 102.388 192.024C106.379 174.962 120.948 159.995 128.888 144.455C151.83 99.5517 159.352 48.5332 181.876 3.30908C181.876 3.30908 870.527 3.30908 873.736 3.30908C876.137 3.37889 881.202 24.099 882.221 26.8217C894.39 59.5914 919.523 85.9802 927.449 120.621C934.427 151.101 932.668 183.507 920.835 212.577C911.01 236.704 887.538 288.197 906.866 311.556C906.866 311.556 146.681 311.556 145.844 311.556H145.816Z" fill="#56111D" stroke="#0B0909" stroke-width="4.69" stroke-miterlimit="10"/>
<path d="M245.496 74.9221C245.496 74.9221 213.023 169.182 227.006 189.958C240.989 210.734 343.251 304.896 390.74 314.935C438.229 324.974 479.047 323.941 486.75 314.935C494.454 305.929 595.53 308.931 625.086 328.716C654.643 348.501 683.279 345.611 736.81 325.616C790.342 305.608 822.522 321.204 839.212 274.891C855.902 228.564 864.903 212.074 857.409 188.729C849.915 165.384 849.901 138.018 834.732 122.869C819.563 107.72 826.611 74.3916 733.335 78.8455C640.074 83.3135 486.681 81.8195 425.502 78.5663C364.323 75.2991 245.496 74.9361 245.496 74.9361V74.9221Z" fill="#F8D7D7"/>
<path d="M645.251 114.757C626.859 130.394 608.452 146.032 590.059 161.67C590.059 161.67 535.258 224.319 534.993 278.046C534.965 283.101 534.072 287.918 533.416 287.918C524.778 287.918 526.508 239.105 527.248 232.934C530.932 202.636 546.771 174.669 567.285 152.525C577.388 141.634 589.041 131.176 601.865 123.581C608.424 119.699 615.234 116.907 622.756 115.483C626.635 114.743 642.963 116.669 645.223 114.743L645.251 114.757Z" fill="#E28DA1"/>
<path d="M852.971 93.436C863.856 135.211 864.066 166.697 862.712 185.951C861.916 197.288 860.479 205.721 854.381 212.758C842.072 226.944 800.668 229.709 800.668 229.709C809.934 220.494 822.368 205.554 829.401 184.261C833.058 173.189 833.267 166.417 836.044 151.813C838.681 137.906 843.496 117.758 852.957 93.436H852.971Z" fill="#E28DA1"/>
<path d="M201.985 75.3689C201.985 75.3689 192.174 132.489 194.658 160.148C197.142 187.794 200.324 214.434 200.324 214.434C200.324 214.434 471.372 267.561 481.741 277.725C482.131 278.102 482.187 278.088 482.187 278.116C481.503 280.001 329.31 262.967 247.143 161.628C222.178 130.841 209.172 99.0491 201.985 75.3829V75.3689Z" fill="#E28DA1"/>
<path d="M374.106 88.5913C434.461 117.535 456.58 150.668 465.511 175.87C465.511 175.87 471.288 192.164 475.628 283.59C497.887 274.137 513.014 275.575 522.894 278.87C534.142 282.612 542.194 289.984 546.492 286.815C550.497 283.855 546.994 274.807 545.431 264.35C542.291 243.127 548.711 226.288 557.209 203.976C558.13 201.547 567.02 178.704 583.501 157.3C628.673 98.6582 706.039 83.1599 704.616 73.6097C703.234 64.4085 629.147 63.836 374.092 88.6052L374.106 88.5913Z" fill="#F9CDCD"/>
<path d="M203.938 117.2C206.506 105.458 202.306 93.9527 201.873 82.2802C201.343 67.9129 207.525 57.6645 215.661 46.3829C226.238 31.7225 237.333 17.411 248.678 3.323C248.678 3.323 792.309 4.21659 792.742 4.23055C797.989 4.23055 812.711 24.2945 816.367 28.4134C824.322 37.3772 831.746 46.8577 838.04 57.0641C858.526 90.3225 866.968 122.492 836.072 151.827L801.156 101.995C801.156 101.995 205.892 108.376 203.952 117.214L203.938 117.2Z" fill="#F9CDCD"/>
<path d="M374.371 100.543C392.233 116.795 410.081 133.047 427.944 149.3C427.944 149.3 480.596 213.778 479.033 267.491C478.88 272.545 479.619 277.39 480.275 277.418C488.913 277.711 488.843 228.871 488.299 222.672C485.634 192.262 470.758 163.765 451.011 140.95C441.285 129.724 429.995 118.876 417.422 110.861C410.989 106.756 404.29 103.726 396.81 102.051C392.959 101.185 376.576 102.554 374.385 100.557L374.371 100.543Z" fill="#E28DA1"/>
<path d="M611.536 203.096C611.536 203.096 648.168 112.034 752.482 194.887C752.482 194.887 693.033 263.553 611.536 203.096Z" fill="#C6C0BD"/>
<path d="M611.536 203.096C617.662 184.275 631.799 167.576 650.233 159.715C667.607 152.315 687.675 153.684 705.188 159.743C726.525 166.892 745.365 180.045 762.585 194.007C740.187 221.08 703.96 237.779 668.724 232.124C647.275 228.899 627.305 217.631 611.536 203.083V203.096ZM611.536 203.096C644.163 222.225 678.604 230.546 714.245 214.015C726.511 208.235 737.941 200.22 747.221 190.321L748.156 200.332C737.424 191.941 726.274 184.177 714.44 177.936C702.886 171.905 690.256 167.032 677.208 165.803C649.759 162.438 625.198 179.737 611.536 203.083V203.096Z" fill="black"/>
<path d="M704.825 171.793C704.49 171.597 704.099 171.472 703.736 171.36C699.159 169.894 694.582 168.428 689.907 167.367C682.19 165.621 674.277 165.007 666.407 164.393C665.765 164.337 665.109 164.295 664.495 164.477C663.727 164.7 663.113 165.258 662.555 165.817C653.457 174.837 651.419 189.218 658.327 200.192C663.267 208.053 672.421 213.066 681.701 213.01C690.982 212.954 700.066 207.816 704.923 199.899C709.765 191.982 710.212 181.539 706.039 173.245C705.816 172.812 705.592 172.379 705.23 172.058C705.104 171.96 704.978 171.863 704.839 171.793H704.825Z" fill="#2C190F" stroke="black" stroke-width="2.34" stroke-miterlimit="10"/>
<path d="M600.219 138.367C601.991 134.793 604.377 131.512 607.252 128.733C613.28 122.911 620.886 117.996 628.045 113.723C644.302 104.006 662.29 97.4294 680.599 92.8218C709.305 85.5893 740.871 81.7357 770.009 88.5214C803.487 96.3263 836.602 124.056 834.021 161.419C834.146 159.562 821.238 149.998 819.396 148.294C805.064 135.184 790.662 127.616 770.651 127.602C733.74 127.602 695.713 125.312 659.095 130.45C637.353 133.508 615.834 139.638 596.786 150.57C597.525 150.137 599.144 140.671 599.856 139.135C599.981 138.884 600.093 138.618 600.219 138.367Z" fill="#26150D"/>
<path d="M427.944 149.3C424.204 146.954 420.548 136.231 417.924 132.335C413.919 126.415 409.412 120.775 404.15 115.916C388.032 101.032 367.365 98.9793 346.907 94.637C327.231 90.4622 308.015 83.2437 287.919 82.4618C270.015 81.7637 252.292 86.2177 235.379 92.1237C222.415 96.6476 208.571 103.196 203.966 117.214C199.724 130.087 203.492 145.404 213.623 154.508C216.944 142.207 223.908 130.269 235.086 124.153C247.575 117.326 262.786 118.89 276.923 120.635C305.293 124.139 333.678 127.658 362.048 131.163C384.865 133.983 408.49 137.097 427.972 149.3H427.944Z" fill="#26150D"/>
<path d="M429.954 213.806C429.954 213.806 337.097 117.926 276.421 206.085C276.421 206.085 325.235 256.461 429.954 213.806Z" fill="#C6C0BD"/>
<path d="M429.954 213.806C401.025 190.949 359.146 165.789 321.328 177.573C320.435 177.922 316.206 179.542 315.397 179.891C313.653 180.813 311.448 181.86 309.717 182.767C307.764 184.122 305.154 185.518 303.298 187.012C296.376 192.206 290.125 198.559 284.989 205.54L281.793 209.785L281.11 201.561C290.278 209.91 301.763 215.495 313.443 219.433C351.415 231.845 392.387 225.004 429.968 213.806H429.954ZM429.954 213.806C384.865 237.667 325.514 247.05 280.677 217.729C276.044 214.741 271.704 210.72 267.811 206.797L271.062 202.398C280.244 189.274 291.66 177.448 306.34 170.369C307.261 169.922 309.606 168.819 310.499 168.414C311.448 168.009 316.681 166.278 317.755 165.887L323.728 164.491C325.445 163.988 327.998 163.904 329.771 163.597C368.231 159.743 406.007 185.853 429.94 213.82L429.954 213.806Z" fill="black"/>
<path d="M406.328 176.889C371.803 160.162 330.734 149.537 293.837 164.393C282.673 169 272.737 175.577 263.359 183.27C269.457 175.577 276.923 168.847 285.282 163.583C322.807 140.21 372.85 151.324 406.342 176.889H406.328Z" fill="black"/>
<path d="M757.603 180.142C730.07 164.784 695.796 146.842 663.616 150.054C654.238 150.989 645.503 154.27 637.339 159.143C641.19 155.22 645.796 151.98 650.833 149.439C685.958 133.229 731.563 155.806 757.617 180.128L757.603 180.142Z" fill="black"/>
<path d="M857.856 114.156C859.614 140.07 861.372 165.998 863.131 191.913C760.91 203.027 657.378 214.448 561.326 251.155C537.491 260.258 512.986 271.107 487.574 268.775C468.679 267.044 451.319 258.164 433.624 251.295C410.347 242.247 380.343 236.746 320.072 226.428C286.664 220.703 244.212 214.588 194.435 210.203C195.244 177.434 196.068 144.65 196.877 111.88C182.434 121.179 176.084 131.093 172.958 137.962C161.738 162.55 175.331 183.842 159.603 205.749C156.142 210.566 153.393 212.465 150.393 218.93C149.667 220.48 141.127 239.524 149.416 253.612C153.965 261.347 161.222 259.854 168.116 267.295C179.294 279.373 186.09 295.192 191.239 310.621C199.529 335.404 206.492 362.756 226.852 379.134C238.561 388.545 253.367 393.082 267.908 396.824C295.846 404.001 324.328 408.999 353.006 412.085C387.181 415.757 427.26 414.249 448.29 387.051C467.381 362.365 465.483 322.14 492.402 306.362C508.702 296.798 531.992 301.964 542.738 317.518C549.325 327.054 551.194 339.006 555.883 349.618C566.405 373.423 590.799 388.866 616.141 394.702C658.997 404.573 704.197 396.796 745.713 384.523C772.242 376.677 798.658 364.627 817.372 343.753C832.597 326.775 838.193 304.435 847.696 284.246C856.53 265.466 876.527 251.951 880.267 231.105C885.11 204.088 881.077 172.072 878.104 144.971C876.639 131.623 871.238 114.938 857.842 114.184L857.856 114.156Z" fill="#E47925" stroke="black" stroke-width="5" stroke-miterlimit="10"/>
<path d="M563.252 330.796C560.712 325.574 558.535 320.157 556.735 314.628C541.859 268.901 607.936 257.438 637.883 250.136C688.317 237.835 739.434 228.257 790.9 221.485C805.971 219.502 824.741 217.771 834.007 232.348C842.757 246.115 839.505 266.444 836.7 281.37C828.606 324.346 790.732 350.148 752.217 364.292C712.989 378.701 655.327 393.166 614.732 379.19C591.078 371.036 573.914 352.675 563.266 330.824L563.252 330.796Z" fill="#FCB85E"/>
<path d="M562.959 330.936C550.874 306.53 548.543 287.401 573.327 270.423C592.557 257.829 615.764 252.593 637.618 247.232C652.313 243.518 667.119 240.264 681.981 237.318C718.85 230.17 756.975 224.976 794.221 220.047C840.593 213.135 845.813 243.322 839.003 281.439C838.598 283.171 837.607 288.141 837.161 289.984C835.919 293.67 834.928 297.454 833.253 300.987C832.89 301.95 831.886 304.1 831.523 305.022C831.258 305.483 828.453 310.788 828.076 311.458C826.541 313.944 824.95 316.401 823.303 318.817C822.019 320.52 820.135 322.908 818.852 324.597C797.096 350.176 765.474 364.557 733.991 374.149C708.495 381.996 681.897 387.735 655.104 387.567C640.772 387.428 626.105 385.333 612.68 380.083C590.269 371.245 573.23 352.326 562.959 330.936ZM563.545 330.657C587.854 378.799 627.417 386.911 677.292 380.069C706.765 375.839 736.043 367.378 763.506 356.012C790.272 344.438 816.186 326.147 828.494 298.892C831.62 292.358 833.602 284.916 835.067 277.823C837.789 263.609 840.412 247.762 833.588 234.456C826.318 220.172 808.413 220.186 794.444 222.015C779.471 223.9 764.511 226.218 749.649 228.871C705.076 236.913 661.048 247.86 616.881 257.829C594.818 263.4 559.498 271.903 555.437 298.334C553.986 309.657 558.968 320.548 563.531 330.643L563.545 330.657Z" fill="black"/>
<path d="M452.686 342.385C455.17 337.442 457.305 332.29 459.092 327.04C461.687 319.389 461.869 312.715 460.25 306.893C458.882 301.936 454.054 284.441 382.506 264.629C349.949 255.609 324.021 252.803 272.164 247.176C230.048 242.61 215.284 242.666 206.715 252.677C197.798 263.093 200.422 278.605 203.366 295.974C206.045 311.808 212.102 347.579 241.421 369.793C255.99 380.837 276.728 383.365 318.202 388.447C361.644 393.767 383.762 396.252 403.048 387.861C403.048 387.861 436.024 375.49 452.658 342.371L452.686 342.385Z" fill="#FCB85E"/>
<path d="M452.407 342.245C459.217 328.451 466.711 309.28 453.091 297.189C442.024 287.387 427.79 282.026 414.031 277.083C396.405 271.163 378.055 265.913 359.941 261.948C335.436 256.6 310.568 253.305 285.7 250.038C273.225 248.432 260.749 246.827 248.245 245.863C241.993 245.361 235.728 245.081 229.504 245.319C223.461 245.556 217.084 246.366 211.948 249.647C195.774 260.957 203.84 284.902 206.464 301.112C210.595 322.154 218.549 343.013 233.509 358.707C237.765 362.91 242.259 367.043 247.436 370.072C260.763 377.64 276.518 379.33 291.52 381.689C303.912 383.309 335.534 387.428 347.521 388.824C359.829 390.122 372.291 391.519 384.6 390.485C396.405 389.606 407.542 385.012 417.575 378.897C432.228 370.114 444.55 357.464 452.379 342.245H452.407ZM452.965 342.525C442.75 362.952 423.59 380.377 403.704 389.341C380.385 399.91 352.754 395.191 328.124 392.859C315.62 391.393 303.13 390.067 290.613 388.293C272.108 385.487 250.994 382.806 236.3 369.5C216.302 352.773 206.129 327.124 202.222 301.894C200.031 284.232 192.872 259.644 210.734 247.734C215.674 244.676 221.396 243.867 227.048 243.462C234.179 243.071 241.31 243.504 248.385 243.964C260.958 244.858 273.462 246.226 286.007 247.287C311.099 249.591 336.357 251.462 361.099 256.545C373.505 259.086 385.716 262.492 397.759 266.402C415.705 272.448 433.847 279.457 449.141 290.934C451.625 292.902 454.095 295.123 456.119 297.58C467.339 310.816 459.663 329.023 452.965 342.525Z" fill="black"/>
<path d="M681.534 202.384C690.821 202.384 698.35 194.852 698.35 185.56C698.35 176.268 690.821 168.735 681.534 168.735C672.247 168.735 664.718 176.268 664.718 185.56C664.718 194.852 672.247 202.384 681.534 202.384Z" fill="black" stroke="#2C190F" stroke-width="1.44" stroke-miterlimit="10"/>
<path d="M691.233 184.01C695.434 184.01 698.839 180.603 698.839 176.401C698.839 172.198 695.434 168.791 691.233 168.791C687.033 168.791 683.628 172.198 683.628 176.401C683.628 180.603 687.033 184.01 691.233 184.01Z" fill="#898FB3"/>
<path d="M742.351 189.064C755.873 190.544 770.428 190.977 783.336 186.063C787.537 184.303 791.598 181.636 793.942 177.364C792.616 182.069 788.96 185.979 784.885 188.841C772.186 197.205 756.92 200.123 742.016 201.784L742.337 189.051L742.351 189.064Z" fill="black"/>
<path d="M735.68 174.013C749.104 176.191 763.618 177.378 776.777 173.133C781.061 171.597 785.262 169.14 787.83 164.993C784.313 174.543 773.512 179.137 764.413 181.957C754.7 184.806 744.862 186.244 734.717 186.705L735.694 174.013H735.68Z" fill="black"/>
<path d="M718.013 165.328C731.437 167.506 745.951 168.693 759.11 164.449C763.394 162.913 767.595 160.455 770.163 156.309C766.646 165.859 755.845 170.452 746.746 173.273C737.033 176.121 727.195 177.559 717.05 178.02L718.027 165.328H718.013Z" fill="black"/>
<path d="M711.104 165.105C720.58 162.396 730.655 158.64 737.996 151.771C740.354 149.425 742.364 146.493 742.768 142.961C743.41 150.361 737.689 156.756 732.553 161.447C726.985 166.376 721.04 170.299 714.398 173.804L711.104 165.105Z" fill="black"/>
<path d="M395.666 189.12C395.387 188.59 394.926 188.171 394.466 187.78C390.977 184.806 386.888 182.614 382.632 180.924C376.003 178.313 368.97 176.917 361.979 175.535C355.713 174.292 349.433 173.064 343.07 172.533C342.344 172.477 341.604 172.421 340.921 172.673C338.325 173.594 336.888 178.76 336.218 181.134C335.269 184.457 334.92 187.933 335.115 191.382C335.506 198.266 338.116 205.065 342.749 210.217C350.815 219.195 364.477 222.63 375.822 218.525C387.167 214.42 395.485 203.041 395.945 190.977C395.959 190.447 395.973 189.888 395.778 189.386C395.75 189.288 395.708 189.204 395.666 189.12Z" fill="#2C190F" stroke="black" stroke-width="2.87" stroke-miterlimit="10"/>
<path d="M365.202 209.24C375.306 209.24 383.497 201.045 383.497 190.935C383.497 180.826 375.306 172.631 365.202 172.631C355.098 172.631 346.907 180.826 346.907 190.935C346.907 201.045 355.098 209.24 365.202 209.24Z" fill="black"/>
<path d="M381.432 200.486C385.632 200.486 389.038 197.079 389.038 192.876C389.038 188.673 385.632 185.267 381.432 185.267C377.232 185.267 373.827 188.673 373.827 192.876C373.827 197.079 377.232 200.486 381.432 200.486Z" fill="#898FB3"/>
<path d="M282.672 211.725C266.973 208.305 237.416 199.676 233.676 181.846C239.496 194.524 257.609 197.079 269.987 198.517C274.467 198.922 279.309 199.173 283.719 199.048L282.672 211.739V211.725Z" fill="black"/>
<path d="M288.826 200.862C272.862 198.978 242.607 193.267 237.165 175.884C242.021 184.401 252.111 186.76 261.056 188.115C270.113 189.288 279.616 189.176 288.645 188.143L288.84 200.876L288.826 200.862Z" fill="black"/>
<path d="M302.405 187.919C286.342 187.417 255.711 184.317 248.79 167.479C254.358 175.549 264.615 177.029 273.643 177.601C282.77 177.992 292.218 177.071 301.135 175.256L302.419 187.919H302.405Z" fill="black"/>
<path d="M305.866 181.581C294.436 178.09 273.755 170.453 271.843 157.091C275.597 166.808 288.226 169.419 297.367 171.248C300.674 171.807 304.163 172.24 307.331 172.393L305.866 181.581Z" fill="black"/>
<path d="M319.709 176.889C310.429 171.416 294.185 160.749 295.204 148.629C296.683 159.883 313.443 166.138 322.877 169.224L319.723 176.889H319.709Z" fill="black"/>
<path d="M336.567 170.997C327.287 165.524 311.043 154.857 312.062 142.737C313.541 153.991 330.301 160.246 339.735 163.332L336.581 170.997H336.567Z" fill="black"/>
<path d="M346.726 170.173C340.893 162.745 331.124 149.034 335.757 139.456C333.427 149.132 344.996 159.408 351.708 164.937L346.712 170.159L346.726 170.173Z" fill="black"/>
<path d="M388.563 181.231C394.117 179.598 403.034 176.945 404.43 170.494C404.597 172.254 403.872 174.055 402.867 175.549C399.685 180.073 394.954 183.019 390.126 185.574L388.563 181.231Z" fill="black"/>
<path d="M377.106 174.278C384.558 172.17 397.355 168.163 399.015 159.45C399.253 161.88 398.262 164.365 396.88 166.445C392.47 172.673 385.939 176.75 379.269 180.254L377.106 174.264V174.278Z" fill="black"/>
<path d="M364.588 170.425C372.04 168.316 384.837 164.309 386.498 155.597C386.735 158.026 385.744 160.511 384.363 162.592C379.953 168.819 373.422 172.896 366.751 176.401L364.588 170.411V170.425Z" fill="black"/>
<path d="M355.783 172.896C360.723 166.934 368.998 156.378 365.44 148.266C368.607 152.246 367.77 158.054 366.626 162.676C365.314 167.59 363.416 172.086 360.96 176.61L355.797 172.896H355.783Z" fill="black"/>
<path d="M697.75 159.171C705.83 156.755 719.897 152.064 721.515 142.542C721.822 151.045 713.561 156.937 707.351 161.433C705.062 162.969 702.788 164.365 700.22 165.691L697.75 159.171Z" fill="black"/>
<path d="M679.999 155.499C688.079 153.083 702.146 148.392 703.764 138.87C704.071 147.373 695.81 153.265 689.6 157.761C687.297 159.297 685.037 160.693 682.469 162.019L679.999 155.499Z" fill="black"/>
<path d="M640.311 172.994C636.432 170.788 630.627 167.618 630.543 162.62C631.631 167.171 637.465 168.805 641.4 170.02L640.311 172.994Z" fill="black"/>
<path d="M651.573 167.66C645.698 164.128 635.957 157.914 636.445 150.221C637.534 157.356 647.54 160.902 653.526 162.927L651.573 167.66Z" fill="black"/>
<path d="M662.793 160.204C656.918 156.672 647.177 150.458 647.666 142.751C648.754 149.886 658.76 153.432 664.747 155.457L662.793 160.19V160.204Z" fill="black"/>
<path d="M673.036 161.461C671.389 154.759 668.863 143.589 674.668 138.423C670.398 144.301 674.948 153.781 677.767 159.492L673.036 161.461Z" fill="black"/>
<path d="M792.742 4.21664C816.535 48.6449 840.733 93.1011 862.601 138.451C868.894 151.506 875.188 164.546 881.482 177.601C884.454 183.759 887.454 190.042 888.417 196.8C890.776 213.247 876.709 228.745 867.862 241.158C859.824 252.426 853.488 264.936 849.511 278.214C848.492 281.621 843.147 311.556 840.691 311.556H906.824C903.991 311.556 902.205 304.282 901.8 302.578C898.088 287.024 902.665 268.859 906.308 253.794C910.229 237.584 914.695 220.717 921.1 205.372C931.287 180.966 936.702 154.871 932.682 128.454C930.24 112.439 924.784 96.8709 916.425 82.9644C908.066 69.0439 896.176 57.6506 887.664 43.8279C880.882 32.8116 871.057 16.9084 873.709 3.30908L792.714 4.20267L792.742 4.21664Z" fill="#56111D" stroke="#0B0909" stroke-width="4.69" stroke-miterlimit="10"/>
<path d="M242.873 5.54305C242.956 5.54305 243.124 5.55701 243.263 5.68268C244.91 7.19061 234.974 20.5107 233.411 22.6469C217.614 44.3165 213.344 71.2499 202.961 95.4607C190.918 123.525 169.358 146.633 159.254 175.591C151.23 198.587 151.481 224.054 157.719 247.441C160.664 258.513 165.129 269.194 170.153 279.471C172.177 283.604 184.624 311.807 188.839 311.821C163.092 311.696 137.345 311.584 111.598 311.458C116.943 311.458 113.566 286.284 113.273 283.254C111.821 268.357 105.318 256.74 99.2896 243.308C86.0742 213.889 84.2182 176.861 99.5268 147.833C107.9 131.958 119.622 118.038 129.125 102.777C147.811 72.7299 158.654 39.8625 161.892 4.6355C188.895 4.92871 215.884 5.23588 242.887 5.52909L242.873 5.54305Z" fill="#56111D" stroke="#0B0909" stroke-width="4.69" stroke-miterlimit="10"/>
<path d="M184.708 48.0027C179.029 80.1301 157.733 127.337 132.921 148.825C140.262 131.135 147.644 114.184 156.059 97.1362C164.599 80.144 173.307 63.473 184.708 48.0027Z" fill="#401119"/>
<path d="M834.174 23.1636C845.854 36.8048 855.33 51.3815 865.14 66.1677C874.713 81.1074 884.202 95.6701 891.947 111.88C865.07 92.0399 841.514 55.7797 834.174 23.1775V23.1636Z" fill="#401119"/>
<path d="M871.378 310.607C865.684 291.534 873.611 260.314 891.948 250.275C885.947 270.535 881.495 291.772 871.378 310.607Z" fill="#401119"/>
<path d="M152.082 310.607C143.36 295.164 139.773 278.172 136.578 261.068C135.573 255.986 134.903 249.158 132.936 244.271C138.699 246.855 142.104 252.97 144.909 258.276C152.361 274.151 155.571 293.265 152.096 310.607H152.082Z" fill="#401119"/>
</g>
<defs>
<clipPath id="clip0_78_6">
<rect width="988" height="417" fill="white"/>
</clipPath>
</defs>
</svg>
