<svg width="401" height="39" viewBox="0 0 401 39" fill="none" xmlns="http://www.w3.org/2000/svg">
<path d="M391.38 12.228H8.98001C5.12506 12.228 2 15.3531 2 19.208C2 23.063 5.12506 26.188 8.98001 26.188H391.38C395.235 26.188 398.36 23.063 398.36 19.208C398.36 15.3531 395.235 12.228 391.38 12.228Z" fill="#570D1B" stroke="#F4B14E" stroke-width="4" stroke-miterlimit="10"/>
<path d="M159.22 21.8288C157.62 15.9588 158 8.36878 163.36 4.45878C168.89 0.418777 178.34 1.44878 182.69 6.86878C186.66 11.6488 185.65 18.1288 183.72 23.4588C181.17 30.7388 173.74 34.3288 166.23 36.2588C162.64 37.1788 159.5 34.0488 159.93 30.3788C159.93 30.3488 159.93 30.3288 159.93 30.2988C160.25 27.3388 159.97 24.4588 159.21 21.8288H159.22Z" fill="#570D1B" stroke="#F4B14E" stroke-width="4" stroke-miterlimit="10"/>
</svg>
