<svg width="1280" height="2799" viewBox="0 0 1280 2799" fill="none" xmlns="http://www.w3.org/2000/svg">
<g clip-path="url(#clip0_101_6)">
<rect width="1280" height="2799" fill="#FFECD2"/>
<path d="M814.129 1048.88L584.587 1419L615.709 1037.19L172.186 1220.31L487.322 928.103L1 947.581L386.167 803.428L1 511.226L425.072 581.355V145L584.587 581.355L814.129 195.648L732.429 624.21L1067.02 289.153L814.129 698.235L1207.08 542.395L814.129 850.179H1281L814.129 1048.88Z" fill="#FDE0B8"/>
<path d="M473.871 1731.12L703.413 1361L672.291 1742.81L1115.81 1559.69L800.678 1851.9L1287 1832.42L901.833 1976.57L1287 2268.77L862.928 2198.65V2635L703.413 2198.65L473.871 2584.35L555.571 2155.79L220.981 2490.85L473.871 2081.77L80.9213 2237.61L473.871 1929.82H7.00005L473.871 1731.12Z" fill="#FDE0B8"/>
<path d="M-24.8026 581.413C-46.8379 646.264 -78.2687 756.467 -25.7455 812.483C7.97532 848.372 61.969 844.712 107.387 841.333C126.784 839.492 148.157 837.55 167.498 836.371C177.253 835.911 189.32 835.631 199.131 835.664C324.26 836.102 445.774 873.484 524.856 975.761C591.747 1061.67 615.848 1173.37 622.393 1278.58C623.234 1289.7 624.222 1303.52 624.907 1314.64C629.319 1387.38 627.68 1461.2 612.144 1532.63C594.464 1616.94 562.91 1708.89 599.28 1790.96C619.036 1833 661.4 1856.08 703.159 1872.76C777.032 1901.22 854.902 1916.34 929.82 1945.17C1010.62 1975.22 1086.09 2020.65 1141.85 2088.03C1252.56 2220.49 1282.07 2403.24 1280.98 2570.97C1280.13 2639.06 1274.4 2708 1263.82 2775.27C1262.56 2783.18 1261.28 2791.1 1259.93 2799L1252.18 2798.48C1251.4 2785.04 1250.87 2770.17 1250.34 2756.65C1249.88 2746.73 1249.22 2736.73 1248.81 2726.85C1246.3 2679.64 1242.93 2631.95 1237.62 2585.04C1219.62 2425.69 1180.96 2242.97 1065.04 2125.98C966.92 2025.66 825.436 1998.08 698.489 1948.33C622.101 1917.89 552.672 1873.51 535.116 1787.18C523.531 1734.1 532.657 1678.56 547.957 1627.39C560.507 1584.24 576.661 1544.86 587.628 1502.28C594.329 1476.14 598.662 1448.74 601.076 1421.86C605.723 1367.03 602.771 1311.88 595.485 1257.33C582.195 1143.91 526.506 1029.99 428.419 967.701C426.937 966.702 425.332 965.849 423.806 964.906L414.578 959.349C413.074 958.384 411.435 957.609 409.853 956.745L405.093 954.208L400.345 951.66C399.548 951.244 398.773 950.795 397.965 950.391L395.507 949.246C392.229 947.731 388.985 946.159 385.741 944.61C345.734 926.458 302.83 915.142 259.321 908.946C231.718 904.949 203.15 903.176 175.277 902.962C112.528 903.288 45.5464 913.75 -13.6222 885.742C-71.0172 858.116 -97.363 801.358 -92.4126 739.123C-89.2134 697.318 -74.7664 657.13 -56.0875 620.052C-48.7237 605.548 -40.6415 591.493 -31.7959 578L-24.8138 581.424L-24.8026 581.413Z" fill="#F5B14F"/>
<path d="M192.568 1131.55H194.682V1143.1C194.682 1144.3 194.401 1145.36 193.838 1146.3C193.281 1147.23 192.494 1147.97 191.477 1148.51C190.46 1149.04 189.267 1149.31 187.898 1149.31C186.528 1149.31 185.335 1149.04 184.318 1148.51C183.301 1147.97 182.511 1147.23 181.949 1146.3C181.392 1145.36 181.114 1144.3 181.114 1143.1V1131.55H183.227V1142.93C183.227 1143.78 183.415 1144.54 183.79 1145.21C184.165 1145.87 184.699 1146.39 185.392 1146.77C186.091 1147.14 186.926 1147.33 187.898 1147.33C188.869 1147.33 189.705 1147.14 190.403 1146.77C191.102 1146.39 191.636 1145.87 192.006 1145.21C192.381 1144.54 192.568 1143.78 192.568 1142.93V1131.55ZM200.641 1141.12V1149H198.63V1135.91H200.573V1137.95H200.744C201.05 1137.29 201.516 1136.76 202.141 1136.35C202.766 1135.94 203.573 1135.74 204.562 1135.74C205.448 1135.74 206.224 1135.92 206.888 1136.28C207.553 1136.64 208.07 1137.19 208.44 1137.92C208.809 1138.65 208.994 1139.57 208.994 1140.68V1149H206.982V1140.82C206.982 1139.79 206.715 1138.99 206.181 1138.41C205.647 1137.84 204.914 1137.55 203.982 1137.55C203.34 1137.55 202.766 1137.68 202.261 1137.96C201.761 1138.24 201.366 1138.65 201.076 1139.18C200.786 1139.72 200.641 1140.36 200.641 1141.12ZM214.68 1131.55V1149H212.669V1131.55H214.68ZM223.853 1149.27C222.592 1149.27 221.504 1148.99 220.589 1148.44C219.68 1147.88 218.978 1147.09 218.484 1146.09C217.995 1145.07 217.751 1143.9 217.751 1142.56C217.751 1141.22 217.995 1140.03 218.484 1139.01C218.978 1137.98 219.665 1137.18 220.546 1136.61C221.433 1136.03 222.467 1135.74 223.648 1135.74C224.33 1135.74 225.004 1135.85 225.668 1136.08C226.333 1136.31 226.938 1136.68 227.484 1137.19C228.029 1137.69 228.464 1138.36 228.788 1139.2C229.112 1140.03 229.273 1141.06 229.273 1142.28V1143.14H219.183V1141.4H227.228C227.228 1140.66 227.08 1140 226.785 1139.42C226.495 1138.84 226.08 1138.38 225.54 1138.05C225.006 1137.71 224.376 1137.55 223.648 1137.55C222.847 1137.55 222.154 1137.74 221.569 1138.14C220.989 1138.53 220.543 1139.05 220.231 1139.68C219.918 1140.31 219.762 1140.98 219.762 1141.7V1142.86C219.762 1143.85 219.933 1144.69 220.273 1145.38C220.62 1146.06 221.1 1146.58 221.714 1146.94C222.327 1147.29 223.04 1147.47 223.853 1147.47C224.381 1147.47 224.859 1147.39 225.285 1147.24C225.717 1147.09 226.089 1146.86 226.401 1146.56C226.714 1146.26 226.955 1145.87 227.126 1145.42L229.069 1145.97C228.864 1146.62 228.521 1147.2 228.038 1147.7C227.555 1148.2 226.958 1148.59 226.248 1148.86C225.538 1149.14 224.739 1149.27 223.853 1149.27ZM236.185 1149.31C235.356 1149.31 234.603 1149.15 233.927 1148.84C233.251 1148.52 232.714 1148.06 232.316 1147.47C231.918 1146.86 231.719 1146.14 231.719 1145.28C231.719 1144.53 231.867 1143.93 232.163 1143.46C232.458 1142.99 232.853 1142.62 233.347 1142.35C233.842 1142.09 234.387 1141.89 234.984 1141.76C235.586 1141.62 236.191 1141.51 236.799 1141.43C237.594 1141.33 238.239 1141.25 238.734 1141.2C239.234 1141.14 239.597 1141.05 239.825 1140.92C240.058 1140.79 240.174 1140.56 240.174 1140.24V1140.17C240.174 1139.33 239.944 1138.68 239.484 1138.21C239.029 1137.74 238.339 1137.51 237.413 1137.51C236.452 1137.51 235.7 1137.72 235.154 1138.14C234.609 1138.56 234.225 1139.01 234.004 1139.49L232.094 1138.81C232.435 1138.01 232.89 1137.39 233.458 1136.95C234.032 1136.5 234.657 1136.19 235.333 1136.01C236.015 1135.83 236.685 1135.74 237.344 1135.74C237.765 1135.74 238.248 1135.79 238.793 1135.89C239.344 1135.99 239.876 1136.19 240.387 1136.5C240.904 1136.8 241.333 1137.27 241.674 1137.89C242.015 1138.51 242.185 1139.34 242.185 1140.38V1149H240.174V1147.23H240.072C239.935 1147.51 239.708 1147.82 239.39 1148.14C239.072 1148.46 238.648 1148.74 238.12 1148.97C237.592 1149.19 236.947 1149.31 236.185 1149.31ZM236.492 1147.5C237.288 1147.5 237.958 1147.34 238.504 1147.03C239.055 1146.72 239.469 1146.32 239.748 1145.82C240.032 1145.33 240.174 1144.81 240.174 1144.26V1142.42C240.089 1142.52 239.901 1142.62 239.612 1142.7C239.327 1142.78 238.998 1142.85 238.623 1142.91C238.254 1142.97 237.893 1143.02 237.54 1143.07C237.194 1143.11 236.913 1143.14 236.697 1143.17C236.174 1143.24 235.685 1143.35 235.231 1143.5C234.782 1143.65 234.418 1143.87 234.14 1144.18C233.867 1144.47 233.731 1144.87 233.731 1145.39C233.731 1146.09 233.989 1146.61 234.506 1146.97C235.029 1147.32 235.691 1147.5 236.492 1147.5ZM255.129 1138.84L253.322 1139.35C253.209 1139.05 253.041 1138.76 252.82 1138.47C252.604 1138.18 252.308 1137.95 251.933 1137.76C251.558 1137.57 251.078 1137.48 250.493 1137.48C249.692 1137.48 249.024 1137.66 248.49 1138.03C247.962 1138.39 247.697 1138.86 247.697 1139.42C247.697 1139.92 247.879 1140.32 248.243 1140.61C248.607 1140.89 249.175 1141.14 249.947 1141.33L251.891 1141.81C253.061 1142.09 253.933 1142.53 254.507 1143.11C255.081 1143.69 255.368 1144.44 255.368 1145.35C255.368 1146.1 255.152 1146.77 254.72 1147.36C254.294 1147.95 253.697 1148.42 252.93 1148.76C252.163 1149.1 251.271 1149.27 250.254 1149.27C248.919 1149.27 247.814 1148.98 246.939 1148.4C246.064 1147.82 245.51 1146.98 245.277 1145.86L247.186 1145.39C247.368 1146.09 247.712 1146.62 248.217 1146.97C248.729 1147.32 249.396 1147.5 250.22 1147.5C251.158 1147.5 251.902 1147.3 252.453 1146.9C253.01 1146.5 253.288 1146.02 253.288 1145.45C253.288 1145 253.129 1144.62 252.811 1144.31C252.493 1144 252.004 1143.77 251.345 1143.61L249.163 1143.1C247.964 1142.82 247.084 1142.38 246.521 1141.78C245.964 1141.18 245.686 1140.43 245.686 1139.52C245.686 1138.78 245.893 1138.13 246.308 1137.56C246.729 1136.99 247.3 1136.55 248.021 1136.22C248.749 1135.9 249.572 1135.74 250.493 1135.74C251.788 1135.74 252.805 1136.02 253.544 1136.59C254.288 1137.16 254.817 1137.91 255.129 1138.84ZM260.407 1141.12V1149H258.396V1131.55H260.407V1137.95H260.577C260.884 1137.28 261.344 1136.74 261.958 1136.34C262.577 1135.94 263.401 1135.74 264.43 1135.74C265.322 1135.74 266.103 1135.92 266.773 1136.28C267.444 1136.63 267.964 1137.17 268.333 1137.9C268.708 1138.63 268.896 1139.56 268.896 1140.68V1149H266.884V1140.82C266.884 1139.78 266.614 1138.97 266.075 1138.41C265.54 1137.83 264.799 1137.55 263.85 1137.55C263.191 1137.55 262.6 1137.68 262.077 1137.96C261.56 1138.24 261.151 1138.65 260.85 1139.18C260.555 1139.72 260.407 1140.36 260.407 1141.12ZM285.018 1135.91V1137.61H278.234V1135.91H285.018ZM280.212 1132.77H282.223V1145.25C282.223 1145.82 282.305 1146.24 282.47 1146.53C282.641 1146.81 282.857 1146.99 283.118 1147.09C283.385 1147.18 283.666 1147.23 283.962 1147.23C284.183 1147.23 284.365 1147.22 284.507 1147.19C284.649 1147.16 284.763 1147.14 284.848 1147.12L285.257 1148.93C285.121 1148.98 284.93 1149.03 284.686 1149.09C284.442 1149.14 284.132 1149.17 283.757 1149.17C283.189 1149.17 282.632 1149.05 282.087 1148.8C281.547 1148.56 281.098 1148.19 280.74 1147.69C280.388 1147.19 280.212 1146.56 280.212 1145.8V1132.77ZM290.337 1141.12V1149H288.325V1131.55H290.337V1137.95H290.507C290.814 1137.28 291.274 1136.74 291.888 1136.34C292.507 1135.94 293.331 1135.74 294.359 1135.74C295.251 1135.74 296.033 1135.92 296.703 1136.28C297.374 1136.63 297.893 1137.17 298.263 1137.9C298.638 1138.63 298.825 1139.56 298.825 1140.68V1149H296.814V1140.82C296.814 1139.78 296.544 1138.97 296.004 1138.41C295.47 1137.83 294.729 1137.55 293.78 1137.55C293.121 1137.55 292.53 1137.68 292.007 1137.96C291.49 1138.24 291.081 1138.65 290.78 1139.18C290.484 1139.72 290.337 1140.36 290.337 1141.12ZM307.994 1149.27C306.732 1149.27 305.644 1148.99 304.729 1148.44C303.82 1147.88 303.119 1147.09 302.624 1146.09C302.136 1145.07 301.891 1143.9 301.891 1142.56C301.891 1141.22 302.136 1140.03 302.624 1139.01C303.119 1137.98 303.806 1137.18 304.687 1136.61C305.573 1136.03 306.607 1135.74 307.789 1135.74C308.471 1135.74 309.144 1135.85 309.809 1136.08C310.474 1136.31 311.079 1136.68 311.624 1137.19C312.17 1137.69 312.604 1138.36 312.928 1139.2C313.252 1140.03 313.414 1141.06 313.414 1142.28V1143.14H303.323V1141.4H311.369C311.369 1140.66 311.221 1140 310.925 1139.42C310.636 1138.84 310.221 1138.38 309.681 1138.05C309.147 1137.71 308.516 1137.55 307.789 1137.55C306.988 1137.55 306.295 1137.74 305.71 1138.14C305.13 1138.53 304.684 1139.05 304.371 1139.68C304.059 1140.31 303.903 1140.98 303.903 1141.7V1142.86C303.903 1143.85 304.073 1144.69 304.414 1145.38C304.761 1146.06 305.241 1146.58 305.854 1146.94C306.468 1147.29 307.181 1147.47 307.994 1147.47C308.522 1147.47 308.999 1147.39 309.425 1147.24C309.857 1147.09 310.229 1146.86 310.542 1146.56C310.854 1146.26 311.096 1145.87 311.266 1145.42L313.21 1145.97C313.005 1146.62 312.661 1147.2 312.178 1147.7C311.695 1148.2 311.099 1148.59 310.388 1148.86C309.678 1149.14 308.88 1149.27 307.994 1149.27ZM323.224 1153.91V1135.91H325.167V1137.99H325.406C325.553 1137.76 325.758 1137.47 326.019 1137.12C326.286 1136.76 326.667 1136.44 327.161 1136.16C327.661 1135.88 328.337 1135.74 329.19 1135.74C330.292 1135.74 331.263 1136.01 332.104 1136.57C332.945 1137.12 333.602 1137.9 334.073 1138.91C334.545 1139.92 334.781 1141.11 334.781 1142.49C334.781 1143.88 334.545 1145.08 334.073 1146.09C333.602 1147.11 332.948 1147.89 332.113 1148.45C331.278 1149 330.315 1149.27 329.224 1149.27C328.383 1149.27 327.71 1149.13 327.204 1148.86C326.698 1148.57 326.309 1148.25 326.036 1147.89C325.763 1147.53 325.553 1147.23 325.406 1146.99H325.235V1153.91H323.224ZM325.201 1142.45C325.201 1143.44 325.346 1144.32 325.636 1145.07C325.925 1145.82 326.349 1146.41 326.906 1146.84C327.462 1147.26 328.144 1147.47 328.951 1147.47C329.792 1147.47 330.494 1147.24 331.056 1146.8C331.624 1146.35 332.05 1145.75 332.335 1144.99C332.624 1144.23 332.769 1143.39 332.769 1142.45C332.769 1141.53 332.627 1140.7 332.343 1139.97C332.065 1139.22 331.641 1138.63 331.073 1138.2C330.511 1137.76 329.803 1137.55 328.951 1137.55C328.133 1137.55 327.445 1137.75 326.888 1138.17C326.332 1138.58 325.911 1139.15 325.627 1139.89C325.343 1140.62 325.201 1141.48 325.201 1142.45ZM343.167 1149.27C341.985 1149.27 340.948 1148.99 340.056 1148.43C339.17 1147.87 338.477 1147.08 337.977 1146.07C337.482 1145.06 337.235 1143.87 337.235 1142.52C337.235 1141.16 337.482 1139.97 337.977 1138.95C338.477 1137.93 339.17 1137.14 340.056 1136.58C340.948 1136.02 341.985 1135.74 343.167 1135.74C344.349 1135.74 345.383 1136.02 346.269 1136.58C347.161 1137.14 347.854 1137.93 348.349 1138.95C348.849 1139.97 349.099 1141.16 349.099 1142.52C349.099 1143.87 348.849 1145.06 348.349 1146.07C347.854 1147.08 347.161 1147.87 346.269 1148.43C345.383 1148.99 344.349 1149.27 343.167 1149.27ZM343.167 1147.47C344.065 1147.47 344.803 1147.24 345.383 1146.78C345.962 1146.32 346.391 1145.71 346.67 1144.96C346.948 1144.21 347.087 1143.4 347.087 1142.52C347.087 1141.65 346.948 1140.83 346.67 1140.08C346.391 1139.32 345.962 1138.71 345.383 1138.24C344.803 1137.78 344.065 1137.55 343.167 1137.55C342.269 1137.55 341.531 1137.78 340.951 1138.24C340.371 1138.71 339.942 1139.32 339.664 1140.08C339.386 1140.83 339.246 1141.65 339.246 1142.52C339.246 1143.4 339.386 1144.21 339.664 1144.96C339.942 1145.71 340.371 1146.32 340.951 1146.78C341.531 1147.24 342.269 1147.47 343.167 1147.47ZM354.69 1149L350.701 1135.91H352.815L355.644 1145.93H355.781L358.576 1135.91H360.724L363.485 1145.9H363.621L366.451 1135.91H368.565L364.576 1149H362.599L359.735 1138.94H359.531L356.667 1149H354.69ZM376.267 1149.27C375.006 1149.27 373.918 1148.99 373.003 1148.44C372.094 1147.88 371.392 1147.09 370.898 1146.09C370.409 1145.07 370.165 1143.9 370.165 1142.56C370.165 1141.22 370.409 1140.03 370.898 1139.01C371.392 1137.98 372.08 1137.18 372.96 1136.61C373.847 1136.03 374.881 1135.74 376.062 1135.74C376.744 1135.74 377.418 1135.85 378.082 1136.08C378.747 1136.31 379.352 1136.68 379.898 1137.19C380.443 1137.69 380.878 1138.36 381.202 1139.2C381.526 1140.03 381.688 1141.06 381.688 1142.28V1143.14H371.597V1141.4H379.642C379.642 1140.66 379.494 1140 379.199 1139.42C378.909 1138.84 378.494 1138.38 377.955 1138.05C377.42 1137.71 376.79 1137.55 376.062 1137.55C375.261 1137.55 374.568 1137.74 373.983 1138.14C373.403 1138.53 372.957 1139.05 372.645 1139.68C372.332 1140.31 372.176 1140.98 372.176 1141.7V1142.86C372.176 1143.85 372.347 1144.69 372.688 1145.38C373.034 1146.06 373.514 1146.58 374.128 1146.94C374.741 1147.29 375.455 1147.47 376.267 1147.47C376.795 1147.47 377.273 1147.39 377.699 1147.24C378.131 1147.09 378.503 1146.86 378.815 1146.56C379.128 1146.26 379.369 1145.87 379.54 1145.42L381.483 1145.97C381.278 1146.62 380.935 1147.2 380.452 1147.7C379.969 1148.2 379.372 1148.59 378.662 1148.86C377.952 1149.14 377.153 1149.27 376.267 1149.27ZM384.747 1149V1135.91H386.69V1137.89H386.827C387.065 1137.24 387.497 1136.71 388.122 1136.31C388.747 1135.91 389.452 1135.7 390.236 1135.7C390.384 1135.7 390.568 1135.71 390.79 1135.71C391.011 1135.72 391.179 1135.73 391.293 1135.74V1137.78C391.224 1137.77 391.068 1137.74 390.824 1137.71C390.585 1137.67 390.332 1137.65 390.065 1137.65C389.429 1137.65 388.861 1137.78 388.361 1138.05C387.866 1138.31 387.474 1138.67 387.185 1139.14C386.901 1139.6 386.759 1140.12 386.759 1140.72V1149H384.747ZM405.745 1149.27C404.563 1149.27 403.526 1148.99 402.634 1148.43C401.748 1147.87 401.055 1147.08 400.555 1146.07C400.06 1145.06 399.813 1143.87 399.813 1142.52C399.813 1141.16 400.06 1139.97 400.555 1138.95C401.055 1137.93 401.748 1137.14 402.634 1136.58C403.526 1136.02 404.563 1135.74 405.745 1135.74C406.927 1135.74 407.961 1136.02 408.847 1136.58C409.739 1137.14 410.433 1137.93 410.927 1138.95C411.427 1139.97 411.677 1141.16 411.677 1142.52C411.677 1143.87 411.427 1145.06 410.927 1146.07C410.433 1147.08 409.739 1147.87 408.847 1148.43C407.961 1148.99 406.927 1149.27 405.745 1149.27ZM405.745 1147.47C406.643 1147.47 407.381 1147.24 407.961 1146.78C408.54 1146.32 408.969 1145.71 409.248 1144.96C409.526 1144.21 409.665 1143.4 409.665 1142.52C409.665 1141.65 409.526 1140.83 409.248 1140.08C408.969 1139.32 408.54 1138.71 407.961 1138.24C407.381 1137.78 406.643 1137.55 405.745 1137.55C404.847 1137.55 404.109 1137.78 403.529 1138.24C402.95 1138.71 402.521 1139.32 402.242 1140.08C401.964 1140.83 401.825 1141.65 401.825 1142.52C401.825 1143.4 401.964 1144.21 402.242 1144.96C402.521 1145.71 402.95 1146.32 403.529 1146.78C404.109 1147.24 404.847 1147.47 405.745 1147.47ZM420.577 1135.91V1137.61H413.52V1135.91H420.577ZM415.634 1149V1134.1C415.634 1133.35 415.81 1132.73 416.162 1132.23C416.514 1131.73 416.972 1131.35 417.534 1131.1C418.097 1130.85 418.69 1130.73 419.315 1130.73C419.81 1130.73 420.213 1130.77 420.526 1130.85C420.838 1130.93 421.071 1131 421.224 1131.07L420.645 1132.81C420.543 1132.77 420.401 1132.73 420.219 1132.68C420.043 1132.63 419.81 1132.6 419.52 1132.6C418.855 1132.6 418.375 1132.77 418.08 1133.11C417.79 1133.44 417.645 1133.93 417.645 1134.58V1149H415.634ZM433.998 1149.31C433.168 1149.31 432.415 1149.15 431.739 1148.84C431.063 1148.52 430.526 1148.06 430.129 1147.47C429.731 1146.86 429.532 1146.14 429.532 1145.28C429.532 1144.53 429.68 1143.93 429.975 1143.46C430.271 1142.99 430.665 1142.62 431.16 1142.35C431.654 1142.09 432.2 1141.89 432.796 1141.76C433.398 1141.62 434.004 1141.51 434.612 1141.43C435.407 1141.33 436.052 1141.25 436.546 1141.2C437.046 1141.14 437.41 1141.05 437.637 1140.92C437.87 1140.79 437.987 1140.56 437.987 1140.24V1140.17C437.987 1139.33 437.756 1138.68 437.296 1138.21C436.842 1137.74 436.151 1137.51 435.225 1137.51C434.265 1137.51 433.512 1137.72 432.967 1138.14C432.421 1138.56 432.038 1139.01 431.816 1139.49L429.907 1138.81C430.248 1138.01 430.702 1137.39 431.271 1136.95C431.844 1136.5 432.469 1136.19 433.146 1136.01C433.827 1135.83 434.498 1135.74 435.157 1135.74C435.577 1135.74 436.06 1135.79 436.606 1135.89C437.157 1135.99 437.688 1136.19 438.2 1136.5C438.717 1136.8 439.146 1137.27 439.487 1137.89C439.827 1138.51 439.998 1139.34 439.998 1140.38V1149H437.987V1147.23H437.884C437.748 1147.51 437.521 1147.82 437.202 1148.14C436.884 1148.46 436.461 1148.74 435.933 1148.97C435.404 1149.19 434.759 1149.31 433.998 1149.31ZM434.305 1147.5C435.1 1147.5 435.771 1147.34 436.316 1147.03C436.867 1146.72 437.282 1146.32 437.56 1145.82C437.844 1145.33 437.987 1144.81 437.987 1144.26V1142.42C437.901 1142.52 437.714 1142.62 437.424 1142.7C437.14 1142.78 436.81 1142.85 436.435 1142.91C436.066 1142.97 435.705 1143.02 435.353 1143.07C435.006 1143.11 434.725 1143.14 434.509 1143.17C433.987 1143.24 433.498 1143.35 433.043 1143.5C432.594 1143.65 432.231 1143.87 431.952 1144.18C431.68 1144.47 431.543 1144.87 431.543 1145.39C431.543 1146.09 431.802 1146.61 432.319 1146.97C432.842 1147.32 433.504 1147.5 434.305 1147.5ZM451.919 1143.65V1135.91H453.93V1149H451.919V1146.78H451.783C451.476 1147.45 450.999 1148.01 450.351 1148.48C449.703 1148.94 448.885 1149.17 447.896 1149.17C447.078 1149.17 446.351 1148.99 445.714 1148.63C445.078 1148.27 444.578 1147.72 444.214 1147C443.851 1146.26 443.669 1145.34 443.669 1144.23V1135.91H445.68V1144.09C445.68 1145.05 445.947 1145.81 446.482 1146.38C447.021 1146.94 447.709 1147.23 448.544 1147.23C449.044 1147.23 449.553 1147.1 450.07 1146.84C450.592 1146.59 451.03 1146.2 451.382 1145.67C451.74 1145.14 451.919 1144.47 451.919 1143.65ZM463.308 1135.91V1137.61H456.523V1135.91H463.308ZM458.501 1132.77H460.512V1145.25C460.512 1145.82 460.594 1146.24 460.759 1146.53C460.93 1146.81 461.146 1146.99 461.407 1147.09C461.674 1147.18 461.955 1147.23 462.251 1147.23C462.472 1147.23 462.654 1147.22 462.796 1147.19C462.938 1147.16 463.052 1147.14 463.137 1147.12L463.546 1148.93C463.41 1148.98 463.219 1149.03 462.975 1149.09C462.731 1149.14 462.421 1149.17 462.046 1149.17C461.478 1149.17 460.921 1149.05 460.376 1148.8C459.836 1148.56 459.387 1148.19 459.029 1147.69C458.677 1147.19 458.501 1146.56 458.501 1145.8V1132.77ZM471.511 1149.27C470.329 1149.27 469.292 1148.99 468.4 1148.43C467.513 1147.87 466.82 1147.08 466.32 1146.07C465.826 1145.06 465.579 1143.87 465.579 1142.52C465.579 1141.16 465.826 1139.97 466.32 1138.95C466.82 1137.93 467.513 1137.14 468.4 1136.58C469.292 1136.02 470.329 1135.74 471.511 1135.74C472.692 1135.74 473.727 1136.02 474.613 1136.58C475.505 1137.14 476.198 1137.93 476.692 1138.95C477.192 1139.97 477.442 1141.16 477.442 1142.52C477.442 1143.87 477.192 1145.06 476.692 1146.07C476.198 1147.08 475.505 1147.87 474.613 1148.43C473.727 1148.99 472.692 1149.27 471.511 1149.27ZM471.511 1147.47C472.408 1147.47 473.147 1147.24 473.727 1146.78C474.306 1146.32 474.735 1145.71 475.013 1144.96C475.292 1144.21 475.431 1143.4 475.431 1142.52C475.431 1141.65 475.292 1140.83 475.013 1140.08C474.735 1139.32 474.306 1138.71 473.727 1138.24C473.147 1137.78 472.408 1137.55 471.511 1137.55C470.613 1137.55 469.874 1137.78 469.295 1138.24C468.715 1138.71 468.286 1139.32 468.008 1140.08C467.729 1140.83 467.59 1141.65 467.59 1142.52C467.59 1143.4 467.729 1144.21 468.008 1144.96C468.286 1145.71 468.715 1146.32 469.295 1146.78C469.874 1147.24 470.613 1147.47 471.511 1147.47ZM480.513 1149V1135.91H482.456V1137.95H482.626C482.899 1137.26 483.339 1136.71 483.947 1136.33C484.555 1135.93 485.286 1135.74 486.138 1135.74C487.001 1135.74 487.72 1135.93 488.294 1136.33C488.874 1136.71 489.325 1137.26 489.649 1137.95H489.786C490.121 1137.28 490.624 1136.74 491.294 1136.34C491.964 1135.94 492.768 1135.74 493.706 1135.74C494.876 1135.74 495.834 1136.11 496.578 1136.84C497.322 1137.57 497.695 1138.7 497.695 1140.24V1149H495.683V1140.24C495.683 1139.27 495.419 1138.58 494.891 1138.17C494.362 1137.75 493.74 1137.55 493.024 1137.55C492.104 1137.55 491.391 1137.82 490.885 1138.38C490.379 1138.93 490.126 1139.63 490.126 1140.48V1149H488.081V1140.03C488.081 1139.29 487.839 1138.69 487.357 1138.24C486.874 1137.78 486.251 1137.55 485.49 1137.55C484.967 1137.55 484.479 1137.68 484.024 1137.96C483.575 1138.24 483.212 1138.63 482.933 1139.12C482.661 1139.61 482.524 1140.18 482.524 1140.82V1149H480.513ZM505.224 1149.31C504.395 1149.31 503.642 1149.15 502.966 1148.84C502.29 1148.52 501.753 1148.06 501.355 1147.47C500.957 1146.86 500.759 1146.14 500.759 1145.28C500.759 1144.53 500.906 1143.93 501.202 1143.46C501.497 1142.99 501.892 1142.62 502.386 1142.35C502.881 1142.09 503.426 1141.89 504.023 1141.76C504.625 1141.62 505.23 1141.51 505.838 1141.43C506.634 1141.33 507.278 1141.25 507.773 1141.2C508.273 1141.14 508.636 1141.05 508.864 1140.92C509.097 1140.79 509.213 1140.56 509.213 1140.24V1140.17C509.213 1139.33 508.983 1138.68 508.523 1138.21C508.068 1137.74 507.378 1137.51 506.452 1137.51C505.491 1137.51 504.739 1137.72 504.193 1138.14C503.648 1138.56 503.264 1139.01 503.043 1139.49L501.134 1138.81C501.474 1138.01 501.929 1137.39 502.497 1136.95C503.071 1136.5 503.696 1136.19 504.372 1136.01C505.054 1135.83 505.724 1135.74 506.384 1135.74C506.804 1135.74 507.287 1135.79 507.832 1135.89C508.384 1135.99 508.915 1136.19 509.426 1136.5C509.943 1136.8 510.372 1137.27 510.713 1137.89C511.054 1138.51 511.224 1139.34 511.224 1140.38V1149H509.213V1147.23H509.111C508.974 1147.51 508.747 1147.82 508.429 1148.14C508.111 1148.46 507.688 1148.74 507.159 1148.97C506.631 1149.19 505.986 1149.31 505.224 1149.31ZM505.531 1147.5C506.327 1147.5 506.997 1147.34 507.543 1147.03C508.094 1146.72 508.509 1146.32 508.787 1145.82C509.071 1145.33 509.213 1144.81 509.213 1144.26V1142.42C509.128 1142.52 508.94 1142.62 508.651 1142.7C508.366 1142.78 508.037 1142.85 507.662 1142.91C507.293 1142.97 506.932 1143.02 506.58 1143.07C506.233 1143.11 505.952 1143.14 505.736 1143.17C505.213 1143.24 504.724 1143.35 504.27 1143.5C503.821 1143.65 503.457 1143.87 503.179 1144.18C502.906 1144.47 502.77 1144.87 502.77 1145.39C502.77 1146.09 503.028 1146.61 503.545 1146.97C504.068 1147.32 504.73 1147.5 505.531 1147.5ZM520.589 1135.91V1137.61H513.805V1135.91H520.589ZM515.782 1132.77H517.793V1145.25C517.793 1145.82 517.876 1146.24 518.04 1146.53C518.211 1146.81 518.427 1146.99 518.688 1147.09C518.955 1147.18 519.237 1147.23 519.532 1147.23C519.754 1147.23 519.935 1147.22 520.077 1147.19C520.219 1147.16 520.333 1147.14 520.418 1147.12L520.827 1148.93C520.691 1148.98 520.501 1149.03 520.256 1149.09C520.012 1149.14 519.702 1149.17 519.327 1149.17C518.759 1149.17 518.202 1149.05 517.657 1148.8C517.117 1148.56 516.668 1148.19 516.31 1147.69C515.958 1147.19 515.782 1146.56 515.782 1145.8V1132.77ZM523.614 1149V1135.91H525.626V1149H523.614ZM524.637 1133.73C524.245 1133.73 523.907 1133.59 523.623 1133.33C523.344 1133.06 523.205 1132.74 523.205 1132.36C523.205 1131.99 523.344 1131.67 523.623 1131.4C523.907 1131.13 524.245 1131 524.637 1131C525.029 1131 525.364 1131.13 525.643 1131.4C525.927 1131.67 526.069 1131.99 526.069 1132.36C526.069 1132.74 525.927 1133.06 525.643 1133.33C525.364 1133.59 525.029 1133.73 524.637 1133.73ZM534.628 1149.27C533.446 1149.27 532.409 1148.99 531.517 1148.43C530.631 1147.87 529.938 1147.08 529.438 1146.07C528.943 1145.06 528.696 1143.87 528.696 1142.52C528.696 1141.16 528.943 1139.97 529.438 1138.95C529.938 1137.93 530.631 1137.14 531.517 1136.58C532.409 1136.02 533.446 1135.74 534.628 1135.74C535.81 1135.74 536.844 1136.02 537.73 1136.58C538.622 1137.14 539.315 1137.93 539.81 1138.95C540.31 1139.97 540.56 1141.16 540.56 1142.52C540.56 1143.87 540.31 1145.06 539.81 1146.07C539.315 1147.08 538.622 1147.87 537.73 1148.43C536.844 1148.99 535.81 1149.27 534.628 1149.27ZM534.628 1147.47C535.526 1147.47 536.264 1147.24 536.844 1146.78C537.423 1146.32 537.852 1145.71 538.131 1144.96C538.409 1144.21 538.548 1143.4 538.548 1142.52C538.548 1141.65 538.409 1140.83 538.131 1140.08C537.852 1139.32 537.423 1138.71 536.844 1138.24C536.264 1137.78 535.526 1137.55 534.628 1137.55C533.73 1137.55 532.991 1137.78 532.412 1138.24C531.832 1138.71 531.403 1139.32 531.125 1140.08C530.847 1140.83 530.707 1141.65 530.707 1142.52C530.707 1143.4 530.847 1144.21 531.125 1144.96C531.403 1145.71 531.832 1146.32 532.412 1146.78C532.991 1147.24 533.73 1147.47 534.628 1147.47ZM545.641 1141.12V1149H543.63V1135.91H545.573V1137.95H545.744C546.05 1137.29 546.516 1136.76 547.141 1136.35C547.766 1135.94 548.573 1135.74 549.562 1135.74C550.448 1135.74 551.224 1135.92 551.888 1136.28C552.553 1136.64 553.07 1137.19 553.44 1137.92C553.809 1138.65 553.994 1139.57 553.994 1140.68V1149H551.982V1140.82C551.982 1139.79 551.715 1138.99 551.181 1138.41C550.647 1137.84 549.914 1137.55 548.982 1137.55C548.34 1137.55 547.766 1137.68 547.261 1137.96C546.761 1138.24 546.366 1138.65 546.076 1139.18C545.786 1139.72 545.641 1140.36 545.641 1141.12ZM183.807 1178L179.818 1164.91H181.932L184.761 1174.93H184.898L187.693 1164.91H189.841L192.602 1174.9H192.739L195.568 1164.91H197.682L193.693 1178H191.716L188.852 1167.94H188.648L185.784 1178H183.807ZM200.341 1178V1164.91H202.352V1178H200.341ZM201.364 1162.73C200.972 1162.73 200.634 1162.59 200.349 1162.33C200.071 1162.06 199.932 1161.74 199.932 1161.36C199.932 1160.99 200.071 1160.67 200.349 1160.4C200.634 1160.13 200.972 1160 201.364 1160C201.756 1160 202.091 1160.13 202.369 1160.4C202.653 1160.67 202.795 1160.99 202.795 1161.36C202.795 1161.74 202.653 1162.06 202.369 1162.33C202.091 1162.59 201.756 1162.73 201.364 1162.73ZM211.729 1164.91V1166.61H204.945V1164.91H211.729ZM206.923 1161.77H208.934V1174.25C208.934 1174.82 209.016 1175.24 209.181 1175.53C209.352 1175.81 209.567 1175.99 209.829 1176.09C210.096 1176.18 210.377 1176.23 210.673 1176.23C210.894 1176.23 211.076 1176.22 211.218 1176.19C211.36 1176.16 211.474 1176.14 211.559 1176.12L211.968 1177.93C211.832 1177.98 211.641 1178.03 211.397 1178.09C211.153 1178.14 210.843 1178.17 210.468 1178.17C209.9 1178.17 209.343 1178.05 208.798 1177.8C208.258 1177.56 207.809 1177.19 207.451 1176.69C207.099 1176.19 206.923 1175.56 206.923 1174.8V1161.77ZM217.048 1170.12V1178H215.036V1160.55H217.048V1166.95H217.218C217.525 1166.28 217.985 1165.74 218.599 1165.34C219.218 1164.94 220.042 1164.74 221.07 1164.74C221.962 1164.74 222.744 1164.92 223.414 1165.28C224.085 1165.63 224.604 1166.17 224.974 1166.9C225.349 1167.63 225.536 1168.56 225.536 1169.68V1178H223.525V1169.82C223.525 1168.78 223.255 1167.97 222.715 1167.41C222.181 1166.83 221.44 1166.55 220.491 1166.55C219.832 1166.55 219.241 1166.68 218.718 1166.96C218.201 1167.24 217.792 1167.65 217.491 1168.18C217.195 1168.72 217.048 1169.36 217.048 1170.12ZM236.955 1178H234.739L241.148 1160.55H243.33L249.739 1178H247.523L242.307 1163.31H242.17L236.955 1178ZM237.773 1171.18H246.705V1173.06H237.773V1171.18ZM260.435 1172.65V1164.91H262.446V1178H260.435V1175.78H260.298C259.991 1176.45 259.514 1177.01 258.866 1177.48C258.219 1177.94 257.401 1178.17 256.412 1178.17C255.594 1178.17 254.866 1177.99 254.23 1177.63C253.594 1177.27 253.094 1176.72 252.73 1176C252.366 1175.26 252.185 1174.34 252.185 1173.23V1164.91H254.196V1173.09C254.196 1174.05 254.463 1174.81 254.997 1175.38C255.537 1175.94 256.224 1176.23 257.06 1176.23C257.56 1176.23 258.068 1176.1 258.585 1175.84C259.108 1175.59 259.545 1175.2 259.898 1174.67C260.256 1174.14 260.435 1173.47 260.435 1172.65ZM271.823 1164.91V1166.61H265.039V1164.91H271.823ZM267.016 1161.77H269.028V1174.25C269.028 1174.82 269.11 1175.24 269.275 1175.53C269.445 1175.81 269.661 1175.99 269.923 1176.09C270.19 1176.18 270.471 1176.23 270.766 1176.23C270.988 1176.23 271.17 1176.22 271.312 1176.19C271.454 1176.16 271.567 1176.14 271.653 1176.12L272.062 1177.93C271.925 1177.98 271.735 1178.03 271.491 1178.09C271.246 1178.14 270.937 1178.17 270.562 1178.17C269.994 1178.17 269.437 1178.05 268.891 1177.8C268.352 1177.56 267.903 1177.19 267.545 1176.69C267.192 1176.19 267.016 1175.56 267.016 1174.8V1161.77ZM280.026 1178.27C278.844 1178.27 277.808 1177.99 276.915 1177.43C276.029 1176.87 275.336 1176.08 274.836 1175.07C274.342 1174.06 274.094 1172.87 274.094 1171.52C274.094 1170.16 274.342 1168.97 274.836 1167.95C275.336 1166.93 276.029 1166.14 276.915 1165.58C277.808 1165.02 278.844 1164.74 280.026 1164.74C281.208 1164.74 282.242 1165.02 283.129 1165.58C284.021 1166.14 284.714 1166.93 285.208 1167.95C285.708 1168.97 285.958 1170.16 285.958 1171.52C285.958 1172.87 285.708 1174.06 285.208 1175.07C284.714 1176.08 284.021 1176.87 283.129 1177.43C282.242 1177.99 281.208 1178.27 280.026 1178.27ZM280.026 1176.47C280.924 1176.47 281.663 1176.24 282.242 1175.78C282.822 1175.32 283.251 1174.71 283.529 1173.96C283.808 1173.21 283.947 1172.4 283.947 1171.52C283.947 1170.65 283.808 1169.83 283.529 1169.08C283.251 1168.32 282.822 1167.71 282.242 1167.24C281.663 1166.78 280.924 1166.55 280.026 1166.55C279.129 1166.55 278.39 1166.78 277.81 1167.24C277.231 1167.71 276.802 1168.32 276.523 1169.08C276.245 1169.83 276.106 1170.65 276.106 1171.52C276.106 1172.4 276.245 1173.21 276.523 1173.96C276.802 1174.71 277.231 1175.32 277.81 1175.78C278.39 1176.24 279.129 1176.47 280.026 1176.47ZM301.438 1178H296.051V1160.55H301.676C303.369 1160.55 304.818 1160.89 306.023 1161.59C307.227 1162.29 308.151 1163.28 308.793 1164.59C309.435 1165.88 309.756 1167.43 309.756 1169.24C309.756 1171.06 309.432 1172.62 308.784 1173.93C308.136 1175.24 307.193 1176.25 305.955 1176.95C304.716 1177.65 303.21 1178 301.438 1178ZM298.165 1176.12H301.301C302.744 1176.12 303.94 1175.85 304.889 1175.29C305.838 1174.73 306.545 1173.94 307.011 1172.91C307.477 1171.88 307.71 1170.66 307.71 1169.24C307.71 1167.83 307.48 1166.62 307.02 1165.6C306.56 1164.58 305.872 1163.79 304.957 1163.25C304.043 1162.7 302.903 1162.42 301.54 1162.42H298.165V1176.12ZM313.028 1178V1164.91H314.972V1166.89H315.108C315.347 1166.24 315.778 1165.71 316.403 1165.31C317.028 1164.91 317.733 1164.7 318.517 1164.7C318.665 1164.7 318.849 1164.71 319.071 1164.71C319.293 1164.72 319.46 1164.73 319.574 1164.74V1166.78C319.506 1166.77 319.349 1166.74 319.105 1166.71C318.866 1166.67 318.614 1166.65 318.347 1166.65C317.71 1166.65 317.142 1166.78 316.642 1167.05C316.148 1167.31 315.756 1167.67 315.466 1168.14C315.182 1168.6 315.04 1169.12 315.04 1169.72V1178H313.028ZM321.958 1178V1164.91H323.969V1178H321.958ZM322.981 1162.73C322.589 1162.73 322.251 1162.59 321.967 1162.33C321.688 1162.06 321.549 1161.74 321.549 1161.36C321.549 1160.99 321.688 1160.67 321.967 1160.4C322.251 1160.13 322.589 1160 322.981 1160C323.373 1160 323.708 1160.13 323.987 1160.4C324.271 1160.67 324.413 1160.99 324.413 1161.36C324.413 1161.74 324.271 1162.06 323.987 1162.33C323.708 1162.59 323.373 1162.73 322.981 1162.73ZM338.358 1164.91L333.517 1178H331.472L326.631 1164.91H328.812L332.426 1175.34H332.562L336.176 1164.91H338.358ZM346.033 1178.27C344.771 1178.27 343.683 1177.99 342.768 1177.44C341.859 1176.88 341.158 1176.09 340.663 1175.09C340.175 1174.07 339.93 1172.9 339.93 1171.56C339.93 1170.22 340.175 1169.03 340.663 1168.01C341.158 1166.98 341.845 1166.18 342.726 1165.61C343.612 1165.03 344.646 1164.74 345.828 1164.74C346.51 1164.74 347.183 1164.85 347.848 1165.08C348.513 1165.31 349.118 1165.68 349.663 1166.19C350.209 1166.69 350.643 1167.36 350.967 1168.2C351.291 1169.03 351.453 1170.06 351.453 1171.28V1172.14H341.362V1170.4H349.408C349.408 1169.66 349.26 1169 348.964 1168.42C348.675 1167.84 348.26 1167.38 347.72 1167.05C347.186 1166.71 346.555 1166.55 345.828 1166.55C345.027 1166.55 344.334 1166.74 343.749 1167.14C343.169 1167.53 342.723 1168.05 342.411 1168.68C342.098 1169.31 341.942 1169.98 341.942 1170.7V1171.86C341.942 1172.85 342.112 1173.69 342.453 1174.38C342.8 1175.06 343.28 1175.58 343.893 1175.94C344.507 1176.29 345.22 1176.47 346.033 1176.47C346.561 1176.47 347.038 1176.39 347.464 1176.24C347.896 1176.09 348.268 1175.86 348.581 1175.56C348.893 1175.26 349.135 1174.87 349.305 1174.42L351.249 1174.97C351.044 1175.62 350.7 1176.2 350.217 1176.7C349.734 1177.2 349.138 1177.59 348.428 1177.86C347.717 1178.14 346.919 1178.27 346.033 1178.27ZM355.979 1178.14C355.558 1178.14 355.197 1177.99 354.896 1177.68C354.595 1177.38 354.445 1177.02 354.445 1176.6C354.445 1176.18 354.595 1175.82 354.896 1175.52C355.197 1175.22 355.558 1175.07 355.979 1175.07C356.399 1175.07 356.76 1175.22 357.061 1175.52C357.362 1175.82 357.513 1176.18 357.513 1176.6C357.513 1176.88 357.442 1177.14 357.3 1177.37C357.163 1177.6 356.979 1177.79 356.746 1177.93C356.518 1178.07 356.263 1178.14 355.979 1178.14Z" fill="#E5E5E5"/>
<path d="M992.078 1178.48L994.223 1178.29C994.324 1179.15 994.559 1179.86 994.926 1180.41C995.301 1180.96 995.879 1181.41 996.66 1181.75C997.441 1182.09 998.32 1182.25 999.297 1182.25C1000.16 1182.25 1000.93 1182.12 1001.59 1181.87C1002.26 1181.61 1002.75 1181.26 1003.07 1180.81C1003.4 1180.36 1003.56 1179.87 1003.56 1179.34C1003.56 1178.8 1003.41 1178.33 1003.09 1177.93C1002.78 1177.52 1002.27 1177.18 1001.55 1176.91C1001.09 1176.73 1000.07 1176.45 998.488 1176.08C996.91 1175.7 995.805 1175.34 995.172 1175C994.352 1174.57 993.738 1174.04 993.332 1173.41C992.934 1172.77 992.734 1172.05 992.734 1171.26C992.734 1170.39 992.98 1169.59 993.473 1168.84C993.965 1168.08 994.684 1167.5 995.629 1167.11C996.574 1166.72 997.625 1166.53 998.781 1166.53C1000.05 1166.53 1001.18 1166.73 1002.14 1167.15C1003.12 1167.55 1003.87 1168.16 1004.39 1168.95C1004.92 1169.75 1005.2 1170.65 1005.24 1171.66L1003.06 1171.82C1002.94 1170.74 1002.54 1169.92 1001.86 1169.36C1001.19 1168.81 1000.2 1168.53 998.875 1168.53C997.5 1168.53 996.496 1168.79 995.863 1169.29C995.238 1169.79 994.926 1170.4 994.926 1171.11C994.926 1171.73 995.148 1172.23 995.594 1172.63C996.031 1173.03 997.172 1173.44 999.016 1173.86C1000.87 1174.28 1002.14 1174.64 1002.82 1174.95C1003.82 1175.41 1004.56 1176 1005.04 1176.71C1005.52 1177.41 1005.75 1178.23 1005.75 1179.15C1005.75 1180.06 1005.49 1180.93 1004.97 1181.74C1004.45 1182.54 1003.69 1183.17 1002.71 1183.62C1001.73 1184.07 1000.63 1184.29 999.402 1184.29C997.848 1184.29 996.543 1184.07 995.488 1183.61C994.441 1183.16 993.617 1182.48 993.016 1181.57C992.422 1180.66 992.109 1179.63 992.078 1178.48ZM1017.11 1179.99L1019.29 1180.26C1018.95 1181.54 1018.31 1182.52 1017.38 1183.23C1016.45 1183.93 1015.26 1184.28 1013.82 1184.28C1012 1184.28 1010.55 1183.72 1009.48 1182.61C1008.42 1181.48 1007.89 1179.91 1007.89 1177.88C1007.89 1175.79 1008.43 1174.16 1009.5 1173.01C1010.58 1171.85 1011.98 1171.27 1013.7 1171.27C1015.36 1171.27 1016.72 1171.84 1017.78 1172.97C1018.83 1174.11 1019.36 1175.7 1019.36 1177.75C1019.36 1177.88 1019.36 1178.07 1019.35 1178.32H1010.07C1010.14 1179.68 1010.53 1180.73 1011.23 1181.46C1011.92 1182.18 1012.79 1182.55 1013.83 1182.55C1014.6 1182.55 1015.26 1182.34 1015.81 1181.94C1016.36 1181.53 1016.79 1180.88 1017.11 1179.99ZM1010.18 1176.58H1017.13C1017.04 1175.54 1016.77 1174.75 1016.34 1174.23C1015.66 1173.41 1014.79 1173.01 1013.72 1173.01C1012.75 1173.01 1011.94 1173.33 1011.27 1173.98C1010.62 1174.63 1010.25 1175.5 1010.18 1176.58ZM1030.47 1179.99L1032.65 1180.26C1032.3 1181.54 1031.67 1182.52 1030.74 1183.23C1029.81 1183.93 1028.62 1184.28 1027.18 1184.28C1025.36 1184.28 1023.91 1183.72 1022.84 1182.61C1021.78 1181.48 1021.25 1179.91 1021.25 1177.88C1021.25 1175.79 1021.79 1174.16 1022.86 1173.01C1023.94 1171.85 1025.34 1171.27 1027.06 1171.27C1028.72 1171.27 1030.08 1171.84 1031.14 1172.97C1032.19 1174.11 1032.72 1175.7 1032.72 1177.75C1032.72 1177.88 1032.71 1178.07 1032.71 1178.32H1023.43C1023.5 1179.68 1023.89 1180.73 1024.59 1181.46C1025.28 1182.18 1026.15 1182.55 1027.19 1182.55C1027.96 1182.55 1028.62 1182.34 1029.17 1181.94C1029.71 1181.53 1030.15 1180.88 1030.47 1179.99ZM1023.54 1176.58H1030.49C1030.4 1175.54 1030.13 1174.75 1029.7 1174.23C1029.02 1173.41 1028.15 1173.01 1027.08 1173.01C1026.11 1173.01 1025.3 1173.33 1024.63 1173.98C1023.98 1174.63 1023.61 1175.5 1023.54 1176.58ZM1042.26 1184V1166.82H1048.74C1049.88 1166.82 1050.75 1166.88 1051.35 1166.98C1052.2 1167.12 1052.9 1167.39 1053.47 1167.79C1054.04 1168.18 1054.5 1168.73 1054.84 1169.45C1055.2 1170.16 1055.37 1170.94 1055.37 1171.79C1055.37 1173.25 1054.91 1174.49 1053.98 1175.5C1053.05 1176.51 1051.37 1177.02 1048.94 1177.02H1044.53V1184H1042.26ZM1044.53 1174.99H1048.97C1050.44 1174.99 1051.48 1174.71 1052.1 1174.17C1052.72 1173.62 1053.03 1172.85 1053.03 1171.86C1053.03 1171.14 1052.84 1170.53 1052.48 1170.02C1052.12 1169.5 1051.64 1169.16 1051.05 1169C1050.66 1168.9 1049.96 1168.85 1048.93 1168.85H1044.53V1174.99ZM1057.97 1184V1171.55H1059.87V1173.44C1060.36 1172.56 1060.8 1171.98 1061.21 1171.7C1061.62 1171.41 1062.07 1171.27 1062.57 1171.27C1063.28 1171.27 1064 1171.5 1064.73 1171.95L1064.01 1173.91C1063.49 1173.61 1062.98 1173.45 1062.46 1173.45C1062 1173.45 1061.59 1173.59 1061.22 1173.88C1060.85 1174.15 1060.59 1174.53 1060.43 1175.02C1060.2 1175.77 1060.08 1176.59 1060.08 1177.48V1184H1057.97ZM1065.2 1177.78C1065.2 1175.47 1065.84 1173.77 1067.12 1172.66C1068.2 1171.73 1069.5 1171.27 1071.04 1171.27C1072.75 1171.27 1074.15 1171.84 1075.23 1172.96C1076.32 1174.08 1076.86 1175.62 1076.86 1177.6C1076.86 1179.2 1076.62 1180.46 1076.14 1181.39C1075.66 1182.3 1074.96 1183.01 1074.04 1183.52C1073.12 1184.03 1072.12 1184.28 1071.04 1184.28C1069.3 1184.28 1067.89 1183.72 1066.81 1182.61C1065.74 1181.49 1065.2 1179.88 1065.2 1177.78ZM1067.37 1177.78C1067.37 1179.37 1067.72 1180.57 1068.41 1181.36C1069.11 1182.15 1069.98 1182.55 1071.04 1182.55C1072.09 1182.55 1072.96 1182.15 1073.65 1181.35C1074.35 1180.55 1074.7 1179.34 1074.7 1177.71C1074.7 1176.17 1074.34 1175 1073.64 1174.21C1072.95 1173.42 1072.08 1173.02 1071.04 1173.02C1069.98 1173.02 1069.11 1173.41 1068.41 1174.2C1067.72 1174.99 1067.37 1176.18 1067.37 1177.78ZM1079.34 1169.27V1166.82H1081.45V1169.27H1079.34ZM1076.66 1188.83L1077.06 1187.04C1077.48 1187.14 1077.82 1187.2 1078.06 1187.2C1078.49 1187.2 1078.81 1187.05 1079.02 1186.77C1079.23 1186.48 1079.34 1185.77 1079.34 1184.63V1171.55H1081.45V1184.68C1081.45 1186.21 1081.25 1187.28 1080.85 1187.88C1080.34 1188.66 1079.5 1189.05 1078.32 1189.05C1077.75 1189.05 1077.2 1188.98 1076.66 1188.83ZM1093.21 1179.99L1095.39 1180.26C1095.05 1181.54 1094.41 1182.52 1093.48 1183.23C1092.55 1183.93 1091.36 1184.28 1089.92 1184.28C1088.1 1184.28 1086.65 1183.72 1085.58 1182.61C1084.52 1181.48 1083.99 1179.91 1083.99 1177.88C1083.99 1175.79 1084.53 1174.16 1085.61 1173.01C1086.68 1171.85 1088.08 1171.27 1089.8 1171.27C1091.46 1171.27 1092.82 1171.84 1093.88 1172.97C1094.93 1174.11 1095.46 1175.7 1095.46 1177.75C1095.46 1177.88 1095.46 1178.07 1095.45 1178.32H1086.17C1086.25 1179.68 1086.63 1180.73 1087.33 1181.46C1088.02 1182.18 1088.89 1182.55 1089.93 1182.55C1090.7 1182.55 1091.36 1182.34 1091.91 1181.94C1092.46 1181.53 1092.89 1180.88 1093.21 1179.99ZM1086.29 1176.58H1093.23C1093.14 1175.54 1092.88 1174.75 1092.44 1174.23C1091.77 1173.41 1090.89 1173.01 1089.82 1173.01C1088.86 1173.01 1088.04 1173.33 1087.38 1173.98C1086.72 1174.63 1086.36 1175.5 1086.29 1176.58ZM1106.17 1179.44L1108.25 1179.71C1108.02 1181.14 1107.44 1182.26 1106.5 1183.07C1105.57 1183.88 1104.43 1184.28 1103.07 1184.28C1101.36 1184.28 1099.99 1183.73 1098.95 1182.62C1097.92 1181.5 1097.41 1179.9 1097.41 1177.82C1097.41 1176.48 1097.63 1175.3 1098.07 1174.3C1098.52 1173.29 1099.2 1172.54 1100.1 1172.04C1101.02 1171.53 1102.01 1171.27 1103.08 1171.27C1104.43 1171.27 1105.54 1171.62 1106.39 1172.3C1107.25 1172.98 1107.8 1173.95 1108.05 1175.21L1106 1175.53C1105.8 1174.69 1105.45 1174.06 1104.95 1173.64C1104.46 1173.22 1103.86 1173.01 1103.16 1173.01C1102.1 1173.01 1101.23 1173.39 1100.57 1174.16C1099.91 1174.91 1099.57 1176.12 1099.57 1177.77C1099.57 1179.44 1099.89 1180.65 1100.54 1181.41C1101.18 1182.17 1102.01 1182.55 1103.04 1182.55C1103.87 1182.55 1104.56 1182.29 1105.12 1181.79C1105.67 1181.28 1106.02 1180.5 1106.17 1179.44ZM1114.66 1182.11L1114.96 1183.98C1114.37 1184.1 1113.84 1184.16 1113.37 1184.16C1112.6 1184.16 1112.01 1184.04 1111.59 1183.8C1111.16 1183.56 1110.87 1183.24 1110.7 1182.85C1110.52 1182.45 1110.44 1181.62 1110.44 1180.36V1173.2H1108.89V1171.55H1110.44V1168.47L1112.54 1167.21V1171.55H1114.66V1173.2H1112.54V1180.47C1112.54 1181.07 1112.57 1181.46 1112.64 1181.63C1112.72 1181.8 1112.84 1181.94 1113 1182.04C1113.18 1182.14 1113.42 1182.2 1113.73 1182.2C1113.96 1182.2 1114.27 1182.17 1114.66 1182.11Z" fill="#FFECD2"/>
<path d="M992.078 1678.48L994.223 1678.29C994.324 1679.15 994.559 1679.86 994.926 1680.41C995.301 1680.96 995.879 1681.41 996.66 1681.75C997.441 1682.09 998.32 1682.25 999.297 1682.25C1000.16 1682.25 1000.93 1682.12 1001.59 1681.87C1002.26 1681.61 1002.75 1681.26 1003.07 1680.81C1003.4 1680.36 1003.56 1679.87 1003.56 1679.34C1003.56 1678.8 1003.41 1678.33 1003.09 1677.93C1002.78 1677.52 1002.27 1677.18 1001.55 1676.91C1001.09 1676.73 1000.07 1676.45 998.488 1676.08C996.91 1675.7 995.805 1675.34 995.172 1675C994.352 1674.57 993.738 1674.04 993.332 1673.41C992.934 1672.77 992.734 1672.05 992.734 1671.26C992.734 1670.39 992.98 1669.59 993.473 1668.84C993.965 1668.08 994.684 1667.5 995.629 1667.11C996.574 1666.72 997.625 1666.53 998.781 1666.53C1000.05 1666.53 1001.18 1666.73 1002.14 1667.15C1003.12 1667.55 1003.87 1668.16 1004.39 1668.95C1004.92 1669.75 1005.2 1670.65 1005.24 1671.66L1003.06 1671.82C1002.94 1670.74 1002.54 1669.92 1001.86 1669.36C1001.19 1668.81 1000.2 1668.53 998.875 1668.53C997.5 1668.53 996.496 1668.79 995.863 1669.29C995.238 1669.79 994.926 1670.4 994.926 1671.11C994.926 1671.73 995.148 1672.23 995.594 1672.63C996.031 1673.03 997.172 1673.44 999.016 1673.86C1000.87 1674.28 1002.14 1674.64 1002.82 1674.95C1003.82 1675.41 1004.56 1676 1005.04 1676.71C1005.52 1677.41 1005.75 1678.23 1005.75 1679.15C1005.75 1680.06 1005.49 1680.93 1004.97 1681.74C1004.45 1682.54 1003.69 1683.17 1002.71 1683.62C1001.73 1684.07 1000.63 1684.29 999.402 1684.29C997.848 1684.29 996.543 1684.07 995.488 1683.61C994.441 1683.16 993.617 1682.48 993.016 1681.57C992.422 1680.66 992.109 1679.63 992.078 1678.48ZM1017.11 1679.99L1019.29 1680.26C1018.95 1681.54 1018.31 1682.52 1017.38 1683.23C1016.45 1683.93 1015.26 1684.28 1013.82 1684.28C1012 1684.28 1010.55 1683.72 1009.48 1682.61C1008.42 1681.48 1007.89 1679.91 1007.89 1677.88C1007.89 1675.79 1008.43 1674.16 1009.5 1673.01C1010.58 1671.85 1011.98 1671.27 1013.7 1671.27C1015.36 1671.27 1016.72 1671.84 1017.78 1672.97C1018.83 1674.11 1019.36 1675.7 1019.36 1677.75C1019.36 1677.88 1019.36 1678.07 1019.35 1678.32H1010.07C1010.14 1679.68 1010.53 1680.73 1011.23 1681.46C1011.92 1682.18 1012.79 1682.55 1013.83 1682.55C1014.6 1682.55 1015.26 1682.34 1015.81 1681.94C1016.36 1681.53 1016.79 1680.88 1017.11 1679.99ZM1010.18 1676.58H1017.13C1017.04 1675.54 1016.77 1674.75 1016.34 1674.23C1015.66 1673.41 1014.79 1673.01 1013.72 1673.01C1012.75 1673.01 1011.94 1673.33 1011.27 1673.98C1010.62 1674.63 1010.25 1675.5 1010.18 1676.58ZM1030.47 1679.99L1032.65 1680.26C1032.3 1681.54 1031.67 1682.52 1030.74 1683.23C1029.81 1683.93 1028.62 1684.28 1027.18 1684.28C1025.36 1684.28 1023.91 1683.72 1022.84 1682.61C1021.78 1681.48 1021.25 1679.91 1021.25 1677.88C1021.25 1675.79 1021.79 1674.16 1022.86 1673.01C1023.94 1671.85 1025.34 1671.27 1027.06 1671.27C1028.72 1671.27 1030.08 1671.84 1031.14 1672.97C1032.19 1674.11 1032.72 1675.7 1032.72 1677.75C1032.72 1677.88 1032.71 1678.07 1032.71 1678.32H1023.43C1023.5 1679.68 1023.89 1680.73 1024.59 1681.46C1025.28 1682.18 1026.15 1682.55 1027.19 1682.55C1027.96 1682.55 1028.62 1682.34 1029.17 1681.94C1029.71 1681.53 1030.15 1680.88 1030.47 1679.99ZM1023.54 1676.58H1030.49C1030.4 1675.54 1030.13 1674.75 1029.7 1674.23C1029.02 1673.41 1028.15 1673.01 1027.08 1673.01C1026.11 1673.01 1025.3 1673.33 1024.63 1673.98C1023.98 1674.63 1023.61 1675.5 1023.54 1676.58ZM1042.26 1684V1666.82H1048.74C1049.88 1666.82 1050.75 1666.88 1051.35 1666.98C1052.2 1667.12 1052.9 1667.39 1053.47 1667.79C1054.04 1668.18 1054.5 1668.73 1054.84 1669.45C1055.2 1670.16 1055.37 1670.94 1055.37 1671.79C1055.37 1673.25 1054.91 1674.49 1053.98 1675.5C1053.05 1676.51 1051.37 1677.02 1048.94 1677.02H1044.53V1684H1042.26ZM1044.53 1674.99H1048.97C1050.44 1674.99 1051.48 1674.71 1052.1 1674.17C1052.72 1673.62 1053.03 1672.85 1053.03 1671.86C1053.03 1671.14 1052.84 1670.53 1052.48 1670.02C1052.12 1669.5 1051.64 1669.16 1051.05 1669C1050.66 1668.9 1049.96 1668.85 1048.93 1668.85H1044.53V1674.99ZM1057.97 1684V1671.55H1059.87V1673.44C1060.36 1672.56 1060.8 1671.98 1061.21 1671.7C1061.62 1671.41 1062.07 1671.27 1062.57 1671.27C1063.28 1671.27 1064 1671.5 1064.73 1671.95L1064.01 1673.91C1063.49 1673.61 1062.98 1673.45 1062.46 1673.45C1062 1673.45 1061.59 1673.59 1061.22 1673.88C1060.85 1674.15 1060.59 1674.53 1060.43 1675.02C1060.2 1675.77 1060.08 1676.59 1060.08 1677.48V1684H1057.97ZM1065.2 1677.78C1065.2 1675.47 1065.84 1673.77 1067.12 1672.66C1068.2 1671.73 1069.5 1671.27 1071.04 1671.27C1072.75 1671.27 1074.15 1671.84 1075.23 1672.96C1076.32 1674.08 1076.86 1675.62 1076.86 1677.6C1076.86 1679.2 1076.62 1680.46 1076.14 1681.39C1075.66 1682.3 1074.96 1683.01 1074.04 1683.52C1073.12 1684.03 1072.12 1684.28 1071.04 1684.28C1069.3 1684.28 1067.89 1683.72 1066.81 1682.61C1065.74 1681.49 1065.2 1679.88 1065.2 1677.78ZM1067.37 1677.78C1067.37 1679.37 1067.72 1680.57 1068.41 1681.36C1069.11 1682.15 1069.98 1682.55 1071.04 1682.55C1072.09 1682.55 1072.96 1682.15 1073.65 1681.35C1074.35 1680.55 1074.7 1679.34 1074.7 1677.71C1074.7 1676.17 1074.34 1675 1073.64 1674.21C1072.95 1673.42 1072.08 1673.02 1071.04 1673.02C1069.98 1673.02 1069.11 1673.41 1068.41 1674.2C1067.72 1674.99 1067.37 1676.18 1067.37 1677.78ZM1079.34 1669.27V1666.82H1081.45V1669.27H1079.34ZM1076.66 1688.83L1077.06 1687.04C1077.48 1687.14 1077.82 1687.2 1078.06 1687.2C1078.49 1687.2 1078.81 1687.05 1079.02 1686.77C1079.23 1686.48 1079.34 1685.77 1079.34 1684.63V1671.55H1081.45V1684.68C1081.45 1686.21 1081.25 1687.28 1080.85 1687.88C1080.34 1688.66 1079.5 1689.05 1078.32 1689.05C1077.75 1689.05 1077.2 1688.98 1076.66 1688.83ZM1093.21 1679.99L1095.39 1680.26C1095.05 1681.54 1094.41 1682.52 1093.48 1683.23C1092.55 1683.93 1091.36 1684.28 1089.92 1684.28C1088.1 1684.28 1086.65 1683.72 1085.58 1682.61C1084.52 1681.48 1083.99 1679.91 1083.99 1677.88C1083.99 1675.79 1084.53 1674.16 1085.61 1673.01C1086.68 1671.85 1088.08 1671.27 1089.8 1671.27C1091.46 1671.27 1092.82 1671.84 1093.88 1672.97C1094.93 1674.11 1095.46 1675.7 1095.46 1677.75C1095.46 1677.88 1095.46 1678.07 1095.45 1678.32H1086.17C1086.25 1679.68 1086.63 1680.73 1087.33 1681.46C1088.02 1682.18 1088.89 1682.55 1089.93 1682.55C1090.7 1682.55 1091.36 1682.34 1091.91 1681.94C1092.46 1681.53 1092.89 1680.88 1093.21 1679.99ZM1086.29 1676.58H1093.23C1093.14 1675.54 1092.88 1674.75 1092.44 1674.23C1091.77 1673.41 1090.89 1673.01 1089.82 1673.01C1088.86 1673.01 1088.04 1673.33 1087.38 1673.98C1086.72 1674.63 1086.36 1675.5 1086.29 1676.58ZM1106.17 1679.44L1108.25 1679.71C1108.02 1681.14 1107.44 1682.26 1106.5 1683.07C1105.57 1683.88 1104.43 1684.28 1103.07 1684.28C1101.36 1684.28 1099.99 1683.73 1098.95 1682.62C1097.92 1681.5 1097.41 1679.9 1097.41 1677.82C1097.41 1676.48 1097.63 1675.3 1098.07 1674.3C1098.52 1673.29 1099.2 1672.54 1100.1 1672.04C1101.02 1671.53 1102.01 1671.27 1103.08 1671.27C1104.43 1671.27 1105.54 1671.62 1106.39 1672.3C1107.25 1672.98 1107.8 1673.95 1108.05 1675.21L1106 1675.53C1105.8 1674.69 1105.45 1674.06 1104.95 1673.64C1104.46 1673.22 1103.86 1673.01 1103.16 1673.01C1102.1 1673.01 1101.23 1673.39 1100.57 1674.16C1099.91 1674.91 1099.57 1676.12 1099.57 1677.77C1099.57 1679.44 1099.89 1680.65 1100.54 1681.41C1101.18 1682.17 1102.01 1682.55 1103.04 1682.55C1103.87 1682.55 1104.56 1682.29 1105.12 1681.79C1105.67 1681.28 1106.02 1680.5 1106.17 1679.44ZM1114.66 1682.11L1114.96 1683.98C1114.37 1684.1 1113.84 1684.16 1113.37 1684.16C1112.6 1684.16 1112.01 1684.04 1111.59 1683.8C1111.16 1683.56 1110.87 1683.24 1110.7 1682.85C1110.52 1682.45 1110.44 1681.62 1110.44 1680.36V1673.2H1108.89V1671.55H1110.44V1668.47L1112.54 1667.21V1671.55H1114.66V1673.2H1112.54V1680.47C1112.54 1681.07 1112.57 1681.46 1112.64 1681.63C1112.72 1681.8 1112.84 1681.94 1113 1682.04C1113.18 1682.14 1113.42 1682.2 1113.73 1682.2C1113.96 1682.2 1114.27 1682.17 1114.66 1682.11Z" fill="#FFECD2"/>
</g>
<defs>
<clipPath id="clip0_101_6">
<rect width="1280" height="2799" fill="white"/>
</clipPath>
</defs>
</svg>
