<svg width="414" height="149" viewBox="0 0 414 149" fill="none" xmlns="http://www.w3.org/2000/svg">
<rect x="1.5" y="1.5" width="411" height="146" rx="22.5" fill="#F3F1F2" stroke="#570D1B" stroke-width="3"/>
<path d="M33.207 108.293L34.2266 103.301H32.2461V101.555H34.5781L35.4453 97.3008H32.2461V95.5547H35.7969L36.8164 90.5273H38.5742L37.5547 95.5547H41.2461L42.2656 90.5273H44.0352L43.0156 95.5547H45.043V97.3008H42.6641L41.7852 101.555H45.043V103.301H41.4336L40.4141 108.293H38.6562L39.6641 103.301H35.9844L34.9648 108.293H33.207ZM36.3359 101.555H40.0156L40.8945 97.3008H37.2031L36.3359 101.555ZM47.3281 108V90.8203H58.918V92.8477H49.6016V98.168H57.6641V100.195H49.6016V108H47.3281ZM61.0391 103.465L63.1484 103.184C63.3906 104.379 63.8008 105.242 64.3789 105.773C64.9648 106.297 65.6758 106.559 66.5117 106.559C67.5039 106.559 68.3398 106.215 69.0195 105.527C69.707 104.84 70.0508 103.988 70.0508 102.973C70.0508 102.004 69.7344 101.207 69.1016 100.582C68.4688 99.9492 67.6641 99.6328 66.6875 99.6328C66.2891 99.6328 65.793 99.7109 65.1992 99.8672L65.4336 98.0156C65.5742 98.0312 65.6875 98.0391 65.7734 98.0391C66.6719 98.0391 67.4805 97.8047 68.1992 97.3359C68.918 96.8672 69.2773 96.1445 69.2773 95.168C69.2773 94.3945 69.0156 93.7539 68.4922 93.2461C67.9688 92.7383 67.293 92.4844 66.4648 92.4844C65.6445 92.4844 64.9609 92.7422 64.4141 93.2578C63.8672 93.7734 63.5156 94.5469 63.3594 95.5781L61.25 95.2031C61.5078 93.7891 62.0938 92.6953 63.0078 91.9219C63.9219 91.1406 65.0586 90.75 66.418 90.75C67.3555 90.75 68.2188 90.9531 69.0078 91.3594C69.7969 91.7578 70.3984 92.3047 70.8125 93C71.2344 93.6953 71.4453 94.4336 71.4453 95.2148C71.4453 95.957 71.2461 96.6328 70.8477 97.2422C70.4492 97.8516 69.8594 98.3359 69.0781 98.6953C70.0938 98.9297 70.8828 99.418 71.4453 100.16C72.0078 100.895 72.2891 101.816 72.2891 102.926C72.2891 104.426 71.7422 105.699 70.6484 106.746C69.5547 107.785 68.1719 108.305 66.5 108.305C64.9922 108.305 63.7383 107.855 62.7383 106.957C61.7461 106.059 61.1797 104.895 61.0391 103.465ZM75.3594 108V90.8203H86.9492V92.8477H77.6328V98.168H85.6953V100.195H77.6328V108H75.3594ZM97.0039 108H94.8945V94.5586C94.3867 95.043 93.7188 95.5273 92.8906 96.0117C92.0703 96.4961 91.332 96.8594 90.6758 97.1016V95.0625C91.8555 94.5078 92.8867 93.8359 93.7695 93.0469C94.6523 92.2578 95.2773 91.4922 95.6445 90.75H97.0039V108ZM103.391 108V90.8203H114.98V92.8477H105.664V98.168H113.727V100.195H105.664V108H103.391ZM128.176 105.973V108H116.82C116.805 107.492 116.887 107.004 117.066 106.535C117.355 105.762 117.816 105 118.449 104.25C119.09 103.5 120.012 102.633 121.215 101.648C123.082 100.117 124.344 98.9062 125 98.0156C125.656 97.1172 125.984 96.2695 125.984 95.4727C125.984 94.6367 125.684 93.9336 125.082 93.3633C124.488 92.7852 123.711 92.4961 122.75 92.4961C121.734 92.4961 120.922 92.8008 120.312 93.4102C119.703 94.0195 119.395 94.8633 119.387 95.9414L117.219 95.7188C117.367 94.1016 117.926 92.8711 118.895 92.0273C119.863 91.1758 121.164 90.75 122.797 90.75C124.445 90.75 125.75 91.207 126.711 92.1211C127.672 93.0352 128.152 94.168 128.152 95.5195C128.152 96.207 128.012 96.8828 127.73 97.5469C127.449 98.2109 126.98 98.9102 126.324 99.6445C125.676 100.379 124.594 101.387 123.078 102.668C121.812 103.73 121 104.453 120.641 104.836C120.281 105.211 119.984 105.59 119.75 105.973H128.176Z" fill="#570D1B"/>
</svg>
