<svg width="401" height="39" viewBox="0 0 401 39" fill="none" xmlns="http://www.w3.org/2000/svg">
<path d="M391.38 12.228H8.98001C5.12506 12.228 2 15.3531 2 19.208C2 23.063 5.12506 26.188 8.98001 26.188H391.38C395.235 26.188 398.36 23.063 398.36 19.208C398.36 15.3531 395.235 12.228 391.38 12.228Z" fill="#570D1B" stroke="#F4B14E" stroke-width="4" stroke-miterlimit="10"/>
<path d="M78.2202 21.8288C76.6202 15.9588 77.0002 8.36878 82.3602 4.45878C87.8902 0.418777 97.3402 1.44878 101.69 6.86878C105.66 11.6488 104.65 18.1288 102.72 23.4588C100.17 30.7388 92.7402 34.3288 85.2302 36.2588C81.6402 37.1788 78.5002 34.0488 78.9302 30.3788C78.9302 30.3488 78.9302 30.3288 78.9302 30.2988C79.2502 27.3388 78.9702 24.4588 78.2102 21.8288H78.2202Z" fill="#570D1B" stroke="#F4B14E" stroke-width="4" stroke-miterlimit="10"/>
</svg>
