<svg width="437" height="417" viewBox="0 0 437 417" fill="none" xmlns="http://www.w3.org/2000/svg">
<g clip-path="url(#clip0_1_93)" filter="url(#filter0_dd_1_93)">
<path d="M324.647 37.102C324.647 44.5487 311.771 45.6345 310.969 37.2336C310.563 33.4389 310.025 30.4668 307.171 30.4668C304.054 30.4668 302.967 35.4788 302.967 38.9993V54.4302C302.967 58.3564 307.171 59.848 307.171 65.8032C307.171 68.7862 305.547 72.0325 301.211 72.0325H290.783C286.315 72.0325 284.822 68.7862 284.822 65.8032C284.822 59.848 288.884 58.3564 288.884 54.4302V42.9256C288.884 35.2156 285.766 39.5367 283.604 35.0731C281.299 30.3352 292.144 21.9453 297.556 21.9453C300.267 21.9453 301.892 23.8426 302.572 26.2774C301.76 28.1747 301.211 32.2326 301.211 32.2326C301.617 30.4778 302.967 28.3063 302.967 28.3063C304.998 24.6542 308.247 21.9453 312.989 21.9453C318.544 21.9453 324.636 26.409 324.636 37.102H324.647Z" fill="#570D1B"/>
<path d="M85.4159 380.935C71.091 368.432 62.7595 350.951 51.9363 334.16C40.3776 316.228 29.5544 297.716 21.0802 278.106C5.19658 241.311 -1.47739 199.833 16.8102 162.578C19.6093 156.875 17.5895 149.669 18.1493 143.605C19.8617 125.026 26.2284 104.781 39.5104 91.2252C62.8913 67.3606 88.8627 43.3424 119.06 27.3083C151.31 10.1776 186.722 5.16554 222.891 5.98808C230.136 6.15259 269.301 3.43272 272.056 14.5754C271.98 14.2793 293.154 15.9463 294.384 16.1656C313.066 19.5874 330.75 27.6593 346.008 38.9007C387.709 69.6417 407.589 121.253 420.761 169.487C427.479 194.12 432.287 215.341 429.246 240.84C426.315 265.45 418.774 289.172 404.076 309.363C371.013 354.789 307.183 378.544 254.889 393.141C227.798 400.709 199.653 404.635 171.497 403.22C148.632 402.069 123.627 401.158 101.991 391.529C95.5915 388.678 90.1799 385.081 85.4159 380.924V380.935Z" stroke="black" stroke-width="2.92" stroke-miterlimit="10"/>
<path d="M138.369 54.1342C140.893 52.0066 144.329 50.4492 147.666 51.3595C151.047 52.1711 153.264 55.8999 152.276 59.2449C151.409 62.6009 148.402 64.8821 145.394 66.2639C142.331 67.8103 138.435 67.5361 135.723 65.3537C129.752 60.6926 131.058 52.1711 135.965 47.2139C146.656 36.0603 173.067 27.2097 187.589 34.1191C195.558 37.826 199.982 46.8959 199.313 55.4613C197.94 69.3238 186.92 79.973 175.932 87.3649C164.614 94.8116 151.541 99.5385 138.105 101.205C125.185 102.543 109.609 103.421 98.1492 96.2922C78.9067 83.2193 100.509 54.2439 112.803 43.5289C133.308 25.2685 161.409 18.2386 188.303 17.6134C213.198 17.076 248.346 19.8178 262.913 43.1012C276.294 66.9549 260.706 100.207 244.713 119.17C222.781 145.535 190.07 160.516 156.997 167.305C130.619 172.986 100.399 173.096 77.8419 156.096C43.1768 129.819 51.9803 83.7566 77.6553 54.3755C101.464 27.0891 141.815 12.3821 176.338 4.33214C199.609 -0.592136 224.087 -1.8424 247.413 3.37799C277.71 9.91445 304.976 28.6245 322.232 54.3207C351.628 97.3779 345.382 154.923 309.411 192.167C296.458 205.712 280.849 216.657 264.406 225.563C246.491 235.258 227.545 242.682 208.182 248.813C188.764 254.9 168.786 259.331 148.391 260.636C108.171 263.301 63.067 252.41 35.932 220.649C23.8684 205.887 16.8871 187.495 14.0111 168.796C6.85418 122.23 28.8409 84.4805 67.5236 59.7056C133.66 18.5566 223.484 -7.60018 300.388 13.8407C379.115 36.488 415.481 106.579 427.929 182.593C430.091 195.677 431.639 209.54 432.748 222.722C434.8 263.707 417.358 304.45 388.247 332.997C339.257 380.869 269.06 397.342 202.957 404.262C178.676 411.939 147.37 410.163 122.529 399.744C108.105 393.734 94.7793 384.993 83.2426 374.497C62.9792 356.05 48.4567 332.482 36.1845 308.244C25.5259 287.56 16.1626 266.021 10.7071 243.34C4.5161 217.206 0.0484891 174.379 22.9463 155.219C-4.22153 178.491 7.414 235.817 18.4787 265.264C23.7477 279.817 30.3338 293.855 37.5347 307.542C51.6181 334.84 68.786 361.523 93.6048 380.211C120.839 401.509 157.227 410.634 191.234 403.999C195.119 403.286 198.983 402.244 202.639 401.093C255.416 395.412 309.082 383.512 354.372 354.91C376.535 340.488 396.282 321.8 409.4 298.725C424.12 273.051 431.123 242.54 427.04 213.148C422.034 164.069 409.641 113.511 379.125 73.7765C305.031 -22.3511 160.773 8.68612 70.9045 64.904C30.6412 90.7208 10.7949 129.961 22.1011 177.471C26.9639 197.914 37.6664 217.348 54.8233 229.939C81.3216 249.482 115.515 256.424 147.984 254.264C191.541 250.875 236.854 235.192 274.241 212.555C288.006 203.749 301.058 193.275 311.299 180.487C322.671 166.669 330.157 149.735 333.187 132.133C343.352 79.5891 305.734 26.5517 255.58 11.6911C238.368 6.26237 219.949 4.90243 202.002 6.35011C193.978 6.93137 185.394 8.31324 177.512 9.92541C146.283 17.1418 112.573 29.1948 88.5225 50.8989C74.494 64.257 63.7805 82.0567 60.8057 101.249C56.3272 128.382 72.0132 152.367 97.798 161.306C130.838 173.611 182.167 159.858 211.519 141.982C233.956 128.437 252.715 107.632 260.816 82.4516C267.227 62.9299 265.514 42.7722 245.964 31.9256C228.632 22.0003 208.05 20.7171 188.358 20.9365C168.511 21.3971 148.467 25.0163 130.871 34.4152C119.28 40.6555 108.896 49.3854 101.541 60.3417C96.4258 68.2271 90.8825 77.8015 93.6816 87.2881C100.498 105.581 142.54 100.526 157.172 94.7348C174.142 88.6151 195.646 74.7197 197.94 55.3625C198.467 48.9248 196.008 42.1251 191.124 37.826C177.875 26.3104 147.381 36.3235 136.404 47.6307C131.651 52.3685 130.268 60.4404 135.954 65.0137C138.544 67.1523 142.233 67.4155 145.229 65.9678C148.193 64.6408 151.157 62.4474 152.046 59.1901C153.045 55.9438 150.904 52.2698 147.611 51.4582C144.318 50.526 140.882 52.0505 138.347 54.1342H138.369Z" fill="#200F0A"/>
<path d="M259.63 298.867C260.179 296.422 346.271 101.896 357.698 83.1532C369.114 64.4103 395.217 98.9679 395.217 98.9679C395.217 98.9679 442.978 190.687 429.235 240.851C415.492 291.015 397.314 339.073 356.425 351.806C315.547 364.539 259.63 298.867 259.63 298.867Z" fill="#D77744"/>
<path d="M186.37 299.065C186.37 299.065 211.211 303.923 232.912 295.84C254.614 287.757 275.755 280.727 292.649 274.224C309.531 267.72 305.327 282.756 321.365 266.887C337.402 251.017 320.047 254.735 340.453 247.31C360.859 239.886 362.396 257.795 371.079 235.817C379.762 213.838 375.382 214.113 378.862 203.793C382.341 193.472 395.744 191.981 393.571 174.236C391.397 156.502 396.743 178.601 393.044 149.658C389.345 120.716 389.553 129.819 388.829 112.71C388.104 95.601 401.825 114.41 401.079 112.469C400.332 110.516 378.873 57.9835 365.964 56.832L353.055 55.6804L186.359 299.065H186.37Z" fill="#9E3622"/>
<path d="M13.8135 253.013C13.8135 253.013 183.418 304.362 208.401 301.445C233.385 298.527 264.856 283.425 266.557 282.033C268.258 280.629 277.852 278.424 291.047 277.821C304.241 277.218 333.824 268.806 341.518 273.292C349.213 277.777 363.615 284.16 370.97 295.489C378.324 306.819 396.216 294.766 386.776 313.256C377.336 331.747 373.538 336.452 372.682 340.696C371.826 344.941 328.84 371.898 321.036 374.881C313.231 377.864 196.371 405.15 189.839 405.83C183.297 406.51 99.1041 395.894 92.5948 386.386C86.0745 376.877 20.9704 289.008 13.8245 253.002L13.8135 253.013Z" fill="#FDD495"/>
<path d="M10.4652 247.124C10.4652 247.124 135.756 321.975 151.804 321.01C167.841 320.045 171.694 322.293 174.801 332.273C177.907 342.254 170.893 338.996 181.145 348.461C191.409 357.926 190.3 353.133 203.209 365.307C216.107 377.48 220.52 386.967 222.419 389.961C224.318 392.955 247.556 395.181 247.556 395.181C247.556 395.181 116.096 425.681 80.3224 371.635C44.5486 317.588 9.56514 260.767 10.4652 247.124Z" fill="#F6F5BE"/>
<path d="M10.4655 247.124C10.4655 247.124 76.8758 368.498 258.818 271.603C440.761 174.708 365.975 56.8321 365.975 56.8321C346.952 43.5398 319.488 29.3373 289.488 33.9545C255.569 39.1749 243.099 64.6627 211.552 95.1515C121.08 182.593 12.4962 176.989 8.62136 231.353C8.16033 237.868 9.33486 243.373 10.4545 247.124H10.4655Z" fill="#B8562F"/>
<path d="M21.9365 123.206C21.9365 123.206 35.8114 226.297 134.197 195.118C134.197 195.118 254.252 182.428 300.158 79.0406C300.158 79.0406 309.894 41.7521 272.057 14.5863C234.23 -12.5904 63.9891 59.7054 21.9365 123.206Z" fill="#EB712E"/>
<path d="M6.71127 226.67C10.5422 237.901 17.776 244.525 24.8012 252.323C40.6519 269.914 61.036 281.605 84.7023 284.336C103.44 286.496 121.497 281.276 140.015 282.208C142.715 282.34 145.789 282.625 147.907 284.489C156.941 292.441 169.828 288.47 175.975 300.512C182.111 312.554 185.448 314.748 185.986 326.472C186.524 338.185 197.325 342.977 203.451 342.1C209.576 341.234 214.307 335.432 211.2 328.676C208.094 321.92 194.406 304.833 195.525 295.961C196.261 290.105 197.435 283.985 200.509 278.852C204.878 271.515 211.65 270.089 219.587 268.795C227.26 267.545 232.353 263.586 234.647 256.051C237.402 247.047 263.055 255.547 267.688 250.787C267.688 250.787 280.542 249.318 285.426 231.035C290.311 212.753 323.011 236.936 325.679 243.856C328.346 250.776 336.414 260.098 343.11 255.525C349.806 250.963 338.994 233.262 335.591 229.598C332.188 225.935 338.346 209.66 349.619 224.696C356.502 233.887 364.142 242.989 368.489 253.748C370.695 259.199 372.55 264.836 375.338 270.035C378.115 275.211 382.726 279.05 385.283 284.292C388.961 291.848 385.272 300.359 388.554 307.586C391.826 314.77 391.31 319.442 400.113 322.513C408.917 325.583 416.546 315.691 405.371 299.624C394.197 283.557 395.832 272.491 393.746 266.339C391.65 260.186 382.056 249.471 379.542 242.989C377.04 236.497 355.953 193.44 356.315 185.357C356.677 177.263 359.136 166.877 367.962 170.441C376.798 173.995 392.034 201.917 394.515 217.359C394.515 217.359 398.774 222.174 402.067 233.832C405.36 245.479 397.709 257.872 412.067 266.744C426.436 275.617 437.05 254.143 431.441 247.354C426.578 241.454 423.143 234.731 417.984 228.984C407.127 216.855 400.596 201.358 397.808 185.434C396.6 178.546 396.611 171.812 394.526 165.089C389.817 149.889 380.464 136.651 379.004 120.475C378.554 115.43 380.849 76.6937 365.316 56.196C342.89 26.6065 296.425 17.0211 275.975 14.729C139.433 -0.559319 35.3391 128.36 14.461 171.911C9.63113 181.99 -0.983552 204.122 6.71127 226.67Z" fill="#F8E5E3"/>
<path d="M18.1494 143.605C18.1494 143.605 21.5852 283.491 143.363 257.697C265.141 231.902 320.662 187.353 322.88 169.389C325.097 151.424 360.19 95.4257 323.385 52.2149C286.568 8.99319 225.767 -7.01893 180.388 6.42686C134.999 19.8727 18.7971 140.315 18.1494 143.605Z" fill="#671A1F"/>
<path d="M16.5137 139.92C16.5137 139.92 19.9275 236.365 126.557 234.325C233.187 232.285 291.99 173.337 294.877 169.509C297.764 165.682 327.292 130.554 324.91 114.234C322.539 97.9152 319.235 39.1091 268.555 10.4518C217.885 -18.2165 16.5137 139.92 16.5137 139.92Z" fill="#D77744"/>
<path d="M66.5245 64.0705C66.5245 64.0705 -16.1537 123.546 32.6607 174.587C53.3412 196.214 85.7451 197.476 113.626 195.907C137.37 194.569 161.178 190.435 183.978 183.734C198.939 179.336 214.307 175.815 228.291 168.698C253.396 155.932 275.371 132.254 288.148 107.303C300.959 82.2761 299.411 54.2329 281.035 32.3643C231.365 -26.7709 134.999 19.8727 134.999 19.8727L66.5245 64.0705Z" fill="#671A1F"/>
<path d="M243.912 37.3544C243.912 37.3544 247.216 39.9098 250.081 37.2119C252.946 34.5139 254.691 25.0054 264.362 26.8698C274.032 28.7342 274.405 29.7103 281.65 29.151C288.895 28.5916 293.714 33.1211 300.75 37.0802C307.786 41.0394 326.217 47.0275 334.46 75.1584C342.704 103.289 341.31 111.273 341.31 111.273L337.303 141.51C337.303 141.51 326.623 132.21 324.91 114.235C323.198 96.2593 320.465 87.2552 314.844 82.3309C309.224 77.4176 309.06 69.28 298.094 67.9091C287.128 66.5382 285.097 63.2261 280.849 66.7246C276.601 70.2231 273.176 70.0477 276.755 73.5133C280.333 76.9789 284.844 72.263 286.952 74.8074C289.049 77.3518 292.594 73.0088 290.179 80.2691C287.764 87.5404 283.385 81.0258 286.864 91.9821C290.344 102.938 285.723 100.624 292.693 101.293C299.663 101.962 295.437 93.9013 302.792 100.383C310.146 106.865 317.501 135.401 325.36 140.512L333.22 145.623C333.22 145.623 312.155 184.523 310.399 186.465C308.642 188.417 281.189 211.755 281.189 211.755C281.189 211.755 306.03 182.242 306.743 176.375C307.468 170.507 294.438 131.925 286.173 126.902C277.896 121.89 263.483 121.473 250.959 133.383C238.434 145.283 257.819 130.74 259.345 132.769C260.871 134.787 253.857 147.553 244.658 148.858C235.459 150.163 233.22 154.013 228.719 156.853C224.219 159.705 220.509 167.469 208.862 168.226C197.216 168.983 192.32 167.886 185.942 174.072C179.565 180.257 176.568 177.307 174.867 188.395C173.176 199.483 172.199 195.008 174.131 205.822C176.063 216.635 177.249 225.497 170.772 226.122C164.296 226.747 151.98 229.631 151.574 211.152C151.157 192.683 139.916 187.693 133.967 187.748C128.017 187.803 123.846 190.522 119.027 188.658C114.208 186.794 112.057 184.118 105.569 182.78C99.0821 181.442 85.2621 185.258 81.0141 189.7C76.755 194.131 75.0426 202.246 77.8966 211.59C80.7506 220.924 81.058 222.678 82.002 229.017C82.957 235.356 83.3082 251.292 102.178 254.231C102.178 254.231 52.4631 236.3 51.7057 231.562L50.9483 226.824C50.9483 226.824 62.4192 234.325 59.2359 215.429C56.0526 196.532 50.3665 185.675 49.2688 180.882C48.1711 176.09 42.0131 171.747 39.4664 169.005C36.9198 166.263 37.6662 163.368 46.9856 167.228C56.305 171.089 60.4872 173.205 52.9571 160.461C45.4269 147.706 29.4994 165.397 28.9505 167.842C28.4017 170.288 20.0043 181.957 20.0043 181.957C20.0043 181.957 8.18221 103.892 47.5235 79.4356C86.8648 54.9787 46.0416 89.339 46.0416 89.339C46.0416 89.339 40.2897 95.2832 53.1656 94.0549C66.0306 92.8266 59.4773 94.5155 59.4773 94.5155C59.4773 94.5155 57.0185 114.717 58.4894 120.76L59.9713 126.803C59.9713 126.803 46.1843 107.545 31.7497 120.936C17.315 134.337 25.9429 150.371 27.326 149.099C28.6981 147.827 36.5905 137.331 44.9878 137.825C44.9878 137.825 62.2326 133.745 74.9438 150.481C87.6551 167.228 135.778 168.314 141.497 167.535C147.216 166.756 216.996 157.149 238.983 122.603C260.981 88.0668 243.934 37.3544 243.934 37.3544H243.912Z" fill="#F7ECEB"/>
<path d="M61.0029 120.453C61.0029 120.453 67.9733 156.765 90.6406 160.966C113.308 165.155 150.651 170.814 172.265 161.229C193.879 151.644 221.057 138.944 224.208 134.557C227.369 130.17 224.263 132.923 235.734 122.855C247.204 112.787 268.126 87.4635 265.031 73.8422C261.935 60.2209 268.807 59.2339 255.953 50.3066C243.099 41.3793 165.328 -13.2593 61.0029 120.453Z" fill="#34131A"/>
<path d="M61.0029 120.453C61.0029 120.453 82.364 153.596 89.1587 152.839C95.9534 152.082 98.1049 150.887 99.9051 151.687C101.705 152.488 101.398 153.892 105.953 153.826C110.509 153.76 129.795 159.551 139.51 157.676C149.224 155.8 164.548 155.866 178.214 148.737C191.881 141.609 189.202 153.047 199.115 141.049C209.027 129.051 211.804 134.315 214.208 128.92C216.601 123.524 214.757 121.626 221.573 119.005C228.39 116.384 226.392 118.676 231.979 110.549C237.556 102.423 239.63 106.843 240.399 97.2243C241.167 87.617 232.88 62.7982 234.877 58.521C236.875 54.2438 97.139 17.8656 61.0029 120.475V120.453Z" fill="#F9C577"/>
<path d="M57.7319 115.463C57.7319 115.463 78.4564 140.567 85.8987 139.558C93.3411 138.549 122.902 136.86 138.873 136.673C154.845 136.487 153.451 134.82 169.268 136.169C185.086 137.518 194.175 138.856 206.809 126.167C219.444 113.478 214.153 122.964 227.358 105.954C240.564 88.9439 240.059 91.0277 246.875 77.0226C253.692 63.0175 135.8 -39.3504 57.7319 115.463Z" fill="#EC8437"/>
<path d="M57.6662 105.79C57.6662 105.79 60.1251 108.104 65.7233 116.022C71.3215 123.94 76.1185 125.805 81.6618 126.649C87.2051 127.494 115.701 131.431 131.19 129.194C146.678 126.956 147.501 123.282 163.692 125.618C179.883 127.954 181.464 135.917 193.056 124.379C204.647 112.842 203.835 109.793 215.405 100.12C226.963 90.4465 233.538 84.2829 236.502 73.5899C239.466 62.8969 241.365 70.7384 240.882 53.0374C240.399 35.3363 125.273 -4.40886 57.6553 105.779L57.6662 105.79Z" fill="#9E3622"/>
<path d="M164.856 35.7311C168.621 37.2994 171.727 40.1399 174.504 43.123C176.129 44.8668 177.721 46.7641 178.346 49.0672C179.949 54.9237 174.867 60.4183 169.784 63.7413C162.518 68.4792 154.263 71.6926 145.701 73.0854C137.71 74.3905 129.06 73.9957 122.188 69.7185C115.317 65.4413 110.981 56.492 113.89 48.9356C115.13 45.7222 117.479 43.0791 119.883 40.6115C135.383 24.6981 155.833 12.7109 178.127 9.99107C199.422 7.39184 224.823 13.8406 239.071 30.7959C242.912 35.3692 245.745 40.7431 247.117 46.5777C250.245 59.9138 239.718 85.4564 256.71 92.3438C257.644 92.7167 258.697 93.0457 259.224 93.9012C259.96 95.0856 259.312 96.6101 258.62 97.8165C255.064 104.134 250.629 109.957 245.481 115.068C243.143 117.404 240.201 119.904 236.908 120.672C235.031 121.111 232.836 120.76 231.584 119.29C229.565 116.943 230.849 113.39 231.99 110.516C237.15 97.5313 239.718 69.4114 223.022 62.8859C216.447 60.3086 209.049 63.4233 203.143 67.2837C197.49 70.9687 191.837 76.3756 192.012 83.1204C192.045 84.1294 192.254 85.2371 193.033 85.8841C194.823 87.3647 197.38 85.248 198.423 83.1643C199.466 81.0915 200.783 78.4484 203.099 78.5909C204.658 78.6897 205.821 80.1373 206.337 81.6069C207.71 85.5113 205.931 89.9639 203.011 92.8922C200.092 95.8204 196.195 97.5423 192.397 99.1983C179.104 104.978 165.789 110.67 152.419 116.274C147.852 118.194 143.176 120.124 138.226 120.453C134.296 120.716 130.19 119.97 126.491 121.352C122.627 122.8 119.872 126.43 118.742 130.4C117.622 134.359 117.962 138.614 118.884 142.617C121.376 153.365 128.171 163.049 137.435 169.048C126.052 167.864 114.669 166.68 103.286 165.495C107.095 164.3 109.631 160.483 110.289 156.546C110.948 152.62 110.026 148.595 108.775 144.811C106.052 136.553 101.387 128.448 93.824 124.138C86.2609 119.828 75.4047 120.562 70.1467 127.483C71.8152 125.267 71.4749 120.31 71.3981 117.7C71.2005 110.824 64.9546 110.253 62.0128 105.329C59.06 100.383 62.4519 92.7606 64.0655 87.8802C66.7658 79.7315 70.5858 72.1751 74.5046 64.5639C77.0842 59.5519 79.7735 54.3863 84.1643 50.8439C87.9513 47.795 92.6823 46.2048 97.3366 44.801C114.285 39.7012 131.738 36.2575 149.356 34.5247C154.449 34.0312 159.751 33.7022 164.515 35.5776C164.625 35.6214 164.724 35.6653 164.834 35.7092L164.856 35.7311Z" fill="#F9F2EE"/>
<path d="M148.086 59.7265C159.939 56.0131 168.405 49.3624 166.995 44.8717C165.586 40.381 154.835 39.7508 142.982 43.4643C131.129 47.1777 122.663 53.8284 124.072 58.3191C125.482 62.8098 136.233 63.4399 148.086 59.7265Z" fill="#A35951"/>
<path d="M148.378 59.6327C155.886 57.2804 161.25 53.0682 160.357 50.2247C159.465 47.3812 152.655 46.983 145.146 49.3354C137.638 51.6878 132.274 55.8999 133.167 58.7434C134.059 61.5869 140.869 61.9851 148.378 59.6327Z" fill="#671A1F"/>
<path d="M199.543 337.154C201.356 337.154 202.825 335.686 202.825 333.875C202.825 332.064 201.356 330.595 199.543 330.595C197.73 330.595 196.261 332.064 196.261 333.875C196.261 335.686 197.73 337.154 199.543 337.154Z" fill="white"/>
<path d="M406.118 311.952C406.683 310.812 405.22 308.938 402.851 307.768C400.481 306.597 398.103 306.572 397.539 307.712C396.974 308.852 398.437 310.725 400.806 311.896C403.176 313.067 405.554 313.092 406.118 311.952Z" fill="white"/>
<path d="M418.214 255.163C421.252 255.163 423.714 252.703 423.714 249.668C423.714 246.634 421.252 244.174 418.214 244.174C415.177 244.174 412.715 246.634 412.715 249.668C412.715 252.703 415.177 255.163 418.214 255.163Z" fill="white"/>
<path d="M350.179 58.0056C368.445 94.8664 371.968 148.342 339.927 178.776C338.357 180.246 336.513 181.694 334.866 183.087C333.143 184.304 331.178 185.686 329.422 186.826C330.849 185.28 332.452 183.569 333.911 182.056C335.229 180.4 336.743 178.689 338.05 177.066C364.219 143.298 359.586 97.1695 350.179 57.9946V58.0056Z" fill="white"/>
<path d="M19.9275 213.246C28.7859 235.916 44.878 255.503 67.1392 265.549C89.2467 275.617 114.713 274.937 137.995 268.302C126.996 274.367 114.461 277.536 101.903 278.304C61.8483 280.969 26.4148 252.651 19.9165 213.235L19.9275 213.246Z" fill="white"/>
<path d="M107.611 58.4882C99.8285 56.558 92.7265 60.1991 90.6848 61.241C76.7989 68.3587 73.5498 84.7437 72.4411 90.337C71.1678 96.7528 68.7638 108.948 75.2402 115.013C80.0701 119.532 84.5816 115.715 93.0997 119.268C108.709 125.783 113.231 146.84 113.923 150.031C115.712 158.367 115.064 165.693 114.044 170.935C116.459 159.244 116.733 149.768 116.502 143.166C116.195 134.063 114.944 130.554 117.512 126.079C121.08 119.85 128.61 117.678 138.709 114.914C149.916 111.855 150.553 114.355 158.742 111.372C169.773 107.358 179.51 103.311 185.855 92.4317C189.038 86.97 190.63 80.2142 189.192 73.7655C188.731 71.7147 187.841 67.7665 184.581 64.6847C178.511 58.9488 168.84 60.5939 164.944 61.2519C152.836 63.3028 152.825 69.1812 142.177 70.5302C131.552 71.8792 122.156 67.2181 120.893 66.582C114.099 63.1164 113.396 59.9468 107.6 58.5101L107.611 58.4882Z" fill="white"/>
</g>
<defs>
<filter id="filter0_dd_1_93" x="0" y="0" width="437" height="417" filterUnits="userSpaceOnUse" color-interpolation-filters="sRGB">
<feFlood flood-opacity="0" result="BackgroundImageFix"/>
<feColorMatrix in="SourceAlpha" type="matrix" values="0 0 0 0 0 0 0 0 0 0 0 0 0 0 0 0 0 0 127 0" result="hardAlpha"/>
<feOffset dy="4"/>
<feGaussianBlur stdDeviation="2"/>
<feComposite in2="hardAlpha" operator="out"/>
<feColorMatrix type="matrix" values="0 0 0 0 0 0 0 0 0 0 0 0 0 0 0 0 0 0 0.25 0"/>
<feBlend mode="normal" in2="BackgroundImageFix" result="effect1_dropShadow_1_93"/>
<feColorMatrix in="SourceAlpha" type="matrix" values="0 0 0 0 0 0 0 0 0 0 0 0 0 0 0 0 0 0 127 0" result="hardAlpha"/>
<feOffset dy="4"/>
<feGaussianBlur stdDeviation="2"/>
<feComposite in2="hardAlpha" operator="out"/>
<feColorMatrix type="matrix" values="0 0 0 0 0 0 0 0 0 0 0 0 0 0 0 0 0 0 0.25 0"/>
<feBlend mode="normal" in2="effect1_dropShadow_1_93" result="effect2_dropShadow_1_93"/>
<feBlend mode="normal" in="SourceGraphic" in2="effect2_dropShadow_1_93" result="shape"/>
</filter>
<clipPath id="clip0_1_93">
<rect width="429" height="409" fill="white" transform="translate(4)"/>
</clipPath>
</defs>
</svg>
