<svg width="1280" height="4198" viewBox="0 0 1280 4198" fill="none" xmlns="http://www.w3.org/2000/svg">
<g clip-path="url(#clip0_104_129)">
<rect width="1280" height="4198" fill="#FFECD2"/>
<path d="M814.129 1048.88L584.587 1419L615.709 1037.19L172.186 1220.31L487.322 928.103L1 947.581L386.167 803.428L1 511.226L425.072 581.355V145L584.587 581.355L814.129 195.648L732.429 624.21L1067.02 289.153L814.129 698.235L1207.08 542.395L814.129 850.179H1281L814.129 1048.88Z" fill="#FDE0B8"/>
<path d="M733.129 3005.12L503.587 2635L534.709 3016.81L91.1855 2833.69L406.322 3125.9L-80 3106.42L305.167 3250.57L-80 3542.77L344.072 3472.65V3909L503.587 3472.65L733.129 3858.35L651.429 3429.79L986.019 3764.85L733.129 3355.77L1126.08 3511.61L733.129 3203.82H1200L733.129 3005.12Z" fill="#FDE0B8"/>
<path d="M473.871 1731.12L703.413 1361L672.291 1742.81L1115.81 1559.69L800.678 1851.9L1287 1832.42L901.833 1976.57L1287 2268.77L862.928 2198.65V2635L703.413 2198.65L473.871 2584.35L555.571 2155.79L220.981 2490.85L473.871 2081.77L80.9213 2237.61L473.871 1929.82H7.00005L473.871 1731.12Z" fill="#FDE0B8"/>
<path d="M8.19743 581.413C-13.8379 646.264 -45.2687 756.467 7.25449 812.483C40.9753 848.372 94.969 844.712 140.387 841.333C159.784 839.492 181.157 837.55 200.498 836.371C210.253 835.911 222.32 835.631 232.131 835.664C357.26 836.102 478.773 873.484 557.856 975.761C624.747 1061.67 648.848 1173.37 655.393 1278.58C656.234 1289.7 657.222 1303.52 657.907 1314.64C662.319 1387.38 660.68 1461.2 645.144 1532.63C627.464 1616.94 595.91 1708.89 632.28 1790.96C652.036 1833 694.4 1856.08 736.159 1872.76C810.032 1901.22 887.902 1916.34 962.82 1945.17C1043.62 1975.22 1119.09 2020.65 1174.85 2088.03C1285.56 2220.49 1315.07 2403.24 1313.98 2570.97C1313.13 2639.06 1307.4 2708 1296.82 2775.27C1295.56 2783.18 1294.28 2791.1 1292.93 2799L1285.18 2798.48C1284.4 2785.04 1283.87 2770.17 1283.34 2756.65C1282.88 2746.73 1282.22 2736.73 1281.81 2726.85C1279.29 2679.64 1275.93 2631.95 1270.62 2585.04C1252.62 2425.69 1213.96 2242.97 1098.04 2125.98C999.92 2025.66 858.436 1998.08 731.489 1948.33C655.101 1917.89 585.672 1873.51 568.116 1787.18C556.531 1734.1 565.657 1678.56 580.958 1627.39C593.507 1584.24 609.661 1544.86 620.628 1502.28C627.329 1476.14 631.662 1448.74 634.076 1421.86C638.723 1367.03 635.771 1311.88 628.485 1257.33C615.195 1143.91 559.506 1029.99 461.419 967.701C459.937 966.702 458.332 965.849 456.806 964.906L447.578 959.349C446.074 958.384 444.435 957.609 442.853 956.745L438.093 954.208L433.345 951.66C432.548 951.244 431.773 950.795 430.965 950.391L428.507 949.246C425.229 947.731 421.985 946.159 418.741 944.61C378.734 926.458 335.83 915.142 292.321 908.946C264.718 904.949 236.15 903.176 208.277 902.962C145.528 903.288 78.5464 913.75 19.3778 885.742C-38.0172 858.116 -64.363 801.358 -59.4126 739.123C-56.2134 697.318 -41.7664 657.13 -23.0875 620.052C-15.7237 605.548 -7.64149 591.493 1.20406 578L8.1862 581.424L8.19743 581.413Z" fill="#F5B14F"/>
<path d="M-486.803 2216.41C-508.838 2281.26 -540.269 2391.47 -487.746 2447.48C-454.025 2483.37 -400.031 2479.71 -354.613 2476.33C-335.216 2474.49 -313.843 2472.55 -294.502 2471.37C-284.747 2470.91 -272.68 2470.63 -262.869 2470.66C-137.74 2471.1 -16.2265 2508.48 62.8558 2610.76C129.747 2696.67 153.848 2808.37 160.393 2913.58C161.234 2924.7 162.222 2938.52 162.907 2949.64C167.319 3022.38 165.68 3096.2 150.144 3167.63C132.464 3251.94 100.91 3343.89 137.28 3425.96C157.036 3468 199.4 3491.08 241.159 3507.76C315.032 3536.22 392.902 3551.34 467.82 3580.17C548.62 3610.22 624.088 3655.65 679.855 3723.03C790.559 3855.49 820.07 4038.24 818.981 4205.97C818.128 4274.06 812.403 4343 801.818 4410.27C800.561 4418.18 799.281 4426.1 797.934 4434L790.177 4433.48C789.403 4420.04 788.875 4405.17 788.336 4391.65C787.876 4381.73 787.225 4371.73 786.809 4361.85C784.295 4314.64 780.927 4266.95 775.618 4220.04C757.624 4060.69 718.964 3877.97 603.04 3760.98C504.92 3660.66 363.436 3633.08 236.489 3583.33C160.101 3552.89 90.6721 3508.51 73.1157 3422.18C61.5312 3369.1 70.6574 3313.56 85.9575 3262.39C98.5074 3219.24 114.661 3179.86 125.628 3137.28C132.329 3111.14 136.662 3083.74 139.076 3056.86C143.723 3002.03 140.771 2946.88 133.485 2892.33C120.195 2778.91 64.5059 2664.99 -33.5808 2602.7C-35.0626 2601.7 -36.6678 2600.85 -38.1944 2599.91L-47.4216 2594.35C-48.9258 2593.38 -50.5647 2592.61 -52.1475 2591.74L-56.907 2589.21L-61.6553 2586.66C-62.4523 2586.24 -63.2268 2585.8 -64.0351 2585.39L-66.4934 2584.25C-69.7712 2582.73 -73.0153 2581.16 -76.2594 2579.61C-116.266 2561.46 -159.17 2550.14 -202.679 2543.95C-230.282 2539.95 -258.85 2538.18 -286.723 2537.96C-349.472 2538.29 -416.454 2548.75 -475.622 2520.74C-533.017 2493.12 -559.363 2436.36 -554.413 2374.12C-551.213 2332.32 -536.766 2292.13 -518.088 2255.05C-510.724 2240.55 -502.641 2226.49 -493.796 2213L-486.814 2216.42L-486.803 2216.41Z" fill="#F5B14F"/>
<g clip-path="url(#clip1_104_129)">
<path d="M68.8301 45.8301H115.88" stroke="#570D1B" stroke-width="7.66" stroke-miterlimit="10" stroke-linecap="round"/>
<path d="M81.2891 63.6799H128.339" stroke="#570D1B" stroke-width="7.66" stroke-miterlimit="10" stroke-linecap="round"/>
<path d="M68.8301 81.53H115.88" stroke="#570D1B" stroke-width="7.66" stroke-miterlimit="10" stroke-linecap="round"/>
</g>
<g clip-path="url(#clip2_104_129)">
<path d="M635.381 55.0801C634.651 52.4001 634.821 48.9201 637.281 47.1301C639.811 45.2801 644.141 45.7501 646.131 48.2301C647.951 50.4201 647.491 53.3901 646.601 55.8301C645.431 59.1601 642.031 60.8101 638.591 61.6901C636.951 62.1101 635.511 60.6801 635.711 59.0001C635.711 58.9901 635.711 58.9801 635.711 58.9701C635.861 57.6101 635.731 56.3001 635.381 55.0901V55.0801Z" fill="#570D1B"/>
<path d="M689.169 71.28V90.77C689.169 91.23 688.799 91.6 688.339 91.6H677.579C677.119 91.6 676.749 91.23 676.749 90.77V66.3C676.749 62.55 675.249 60.57 672.789 60.57C670.329 60.57 668.929 62.54 667.549 64.18C667.339 64.43 667.299 64.78 667.439 65.08C668.309 66.88 668.829 68.96 668.829 71.28V90.77C668.829 91.23 668.459 91.6 667.999 91.6H657.239C656.779 91.6 656.409 91.23 656.409 90.77V66.3C656.409 62.55 654.909 60.57 652.319 60.57C650.609 60.57 649.669 61.45 648.729 62.44C648.579 62.59 648.499 62.8 648.499 63.01V90.77C648.499 91.23 648.129 91.6 647.669 91.6H636.949C636.489 91.6 636.119 91.23 636.119 90.77V64.65C636.119 64.26 636.399 63.93 636.779 63.85C640.699 63.03 644.199 61.51 647.229 59.28C647.769 58.88 648.529 59.28 648.529 59.95C648.529 60.63 649.309 61.03 649.839 60.62C651.369 59.43 653.659 58.26 656.709 58.26C660.579 58.26 664.039 60.14 666.279 63.18C666.589 63.6 667.219 63.62 667.559 63.21C669.869 60.46 672.619 58.26 676.899 58.26C683.719 58.26 689.169 63.72 689.169 71.28Z" fill="#570D1B"/>
</g>
<rect x="1077" y="52" width="139" height="39" rx="8" fill="#570D1B"/>
<path d="M1105.13 75.192C1105.45 76.376 1104.68 78.008 1102.82 78.008C1097.38 78.008 1100.97 72.152 1098.79 71.864C1098.57 71.896 1098.38 71.896 1098.15 71.896H1097.45V74.296C1097.45 75.32 1098.15 75.608 1098.15 76.472C1098.15 76.824 1097.86 78.008 1096.65 78.008H1094.89C1093.67 78.008 1093.38 76.824 1093.38 76.472C1093.38 75.608 1094.12 75.32 1094.12 74.296V67.672C1094.12 66.648 1093.38 66.36 1093.38 65.496C1093.38 65.144 1093.67 63.96 1094.89 63.96H1098.15C1103.98 63.96 1105.16 69.336 1101.35 71.224C1100.65 71.032 1100.07 71.096 1100.07 71.096C1100.49 71.128 1100.9 71.288 1101.06 71.384C1101.29 71.48 1101.51 71.672 1101.7 71.896C1102.47 72.888 1102.73 74.072 1103.53 74.456C1104.42 74.872 1104.9 74.36 1105.13 75.192ZM1098.15 70.456C1101.06 70.456 1101.35 66.552 1098.15 66.552H1097.45V70.456H1098.15ZM1115.35 73.368C1117.05 74.616 1115.26 78.232 1111.1 78.232C1108.28 78.232 1105.98 75.48 1105.98 72.056C1105.98 68.664 1108.28 65.912 1111.1 65.912C1112.57 65.912 1113.91 66.616 1114.81 67.832C1116.25 69.752 1115.8 72.312 1114.23 72.312C1113.27 72.312 1110.43 72.376 1109.15 72.408H1108.09L1109.21 72.696C1109.47 73.752 1110.07 74.552 1111.1 74.552C1113.95 74.552 1113.85 72.28 1115.35 73.368ZM1111.1 68.248C1110.07 68.248 1109.4 69.304 1109.15 70.552H1112.92C1112.92 68.76 1111.74 68.248 1111.1 68.248ZM1127.51 75.8C1128.12 75.928 1127.8 78.008 1125.46 78.008C1124.5 78.008 1123.96 77.656 1123.64 76.92C1123.8 76.376 1123.93 75.384 1123.93 75.384C1123.83 75.704 1123.48 76.504 1123.48 76.504C1122.97 77.432 1122.07 78.232 1120.63 78.232C1115.32 78.232 1115.57 70.328 1120.79 70.328C1121.91 70.328 1122.65 70.648 1123.16 71.096C1123.06 68.952 1122.42 68.632 1121.69 68.632C1120.66 68.632 1121.14 70.2 1119.22 70.2C1118.39 70.2 1117.75 69.528 1117.75 68.44C1117.75 67.384 1118.74 66.168 1121.85 66.168C1125.3 66.168 1126.68 69.016 1126.68 71.928C1126.68 74.84 1126.94 75.672 1127.51 75.8ZM1121.62 76.056C1122.23 76.056 1123.06 75.48 1123.19 73.72C1123.19 73.56 1123.19 73.432 1123.19 73.304C1123.19 72.792 1122.68 71.768 1121.53 71.768C1119.38 71.768 1119.1 76.056 1121.62 76.056ZM1136.97 73.88C1138.6 75.224 1136.45 78.232 1133.25 78.232C1130.44 78.232 1128.13 75.48 1128.13 72.056C1128.13 68.664 1130.44 65.912 1133.25 65.912C1134.73 65.912 1136.04 66.648 1136.97 67.832C1137.96 69.112 1137.96 71.224 1136.33 71.704C1135.17 72.056 1134.76 71.256 1134.63 70.904C1133.99 69.24 1132.74 68.184 1131.88 68.504C1131.88 68.504 1131.01 68.76 1130.57 70.264C1130.57 70.264 1130.79 69.752 1131.17 69.4C1130.98 70.104 1131.05 71.128 1131.46 72.152C1132.1 73.784 1133.16 74.52 1134.21 74.52C1135.17 74.52 1135.75 72.856 1136.97 73.88ZM1149.97 75.448C1150.64 75.32 1150.74 78.008 1148.02 78.008C1145.11 78.008 1145.04 76.024 1145.56 71.704C1145.88 69.048 1145.04 68.184 1144.21 68.184C1143.41 68.184 1142.9 69.144 1142.9 70.2V73.848C1142.9 74.776 1143.89 75.128 1143.89 76.536C1143.89 77.24 1143.51 78.008 1142.48 78.008H1140.02C1138.96 78.008 1138.61 77.24 1138.61 76.536C1138.61 75.128 1139.57 74.776 1139.57 73.848V67.384C1139.57 65.56 1138.84 66.616 1138.32 65.56C1137.78 64.44 1140.34 62.456 1141.62 62.456C1142.55 62.456 1142.9 63.352 1142.9 64.312C1142.9 64.888 1142.9 65.816 1142.9 66.936C1142.52 67.608 1142.45 68.632 1142.45 68.632C1142.55 68.216 1142.9 67.48 1142.9 67.48C1143.35 66.712 1143.96 66.168 1144.95 66.168C1147.86 66.168 1149.04 68.632 1149.04 71.928C1149.04 74.84 1149.11 75.64 1149.97 75.448ZM1164.98 65.912C1167.99 65.912 1170.45 68.664 1170.45 72.056C1170.45 75.48 1167.99 78.232 1164.98 78.232C1161.94 78.232 1159.48 75.48 1159.48 72.056C1159.48 68.664 1161.94 65.912 1164.98 65.912ZM1166.77 76.312C1167.64 75.928 1167.54 73.752 1166.55 71.416C1165.56 69.08 1164.05 67.48 1163.19 67.832C1163.13 67.864 1163.06 67.896 1163.03 67.928C1162.65 68.184 1162.17 68.792 1162.07 70.328C1162.07 70.328 1162.29 69.624 1162.61 69.016C1162.52 69.976 1162.81 71.32 1163.38 72.728C1164.37 75.064 1165.88 76.664 1166.77 76.312ZM1182.78 75.8C1183.39 75.928 1183.17 78.008 1181.15 78.008C1180.22 78.008 1179.65 77.624 1179.3 77.048C1179.49 76.504 1179.58 75.416 1179.58 75.416C1179.49 76.12 1179.1 76.664 1179.1 76.664C1178.59 77.432 1177.76 78.008 1176.29 78.008C1172.32 78.008 1172.38 75.032 1172.38 73.976V71.128C1172.38 69.304 1171.65 70.328 1171.14 69.272C1170.59 68.152 1173.15 66.168 1174.43 66.168C1175.36 66.168 1175.71 67.096 1175.71 68.024C1175.71 70.68 1175.71 73.72 1175.71 73.72C1175.71 74.808 1175.9 76.152 1177.06 76.152C1178.3 76.152 1178.66 74.904 1178.66 73.72V71.128C1178.66 69.304 1177.92 70.328 1177.41 69.272C1176.86 68.152 1179.42 66.168 1180.7 66.168C1181.63 66.168 1181.98 67.096 1181.98 68.024C1181.98 70.68 1181.98 73.72 1181.98 73.72C1181.98 75.416 1182.34 75.704 1182.78 75.8ZM1190.04 66.84C1190.04 68.504 1188.98 68.344 1188.6 68.344H1187.38L1188.31 68.504C1188.28 68.568 1188.28 68.664 1188.28 68.664L1188.25 72.216C1188.25 75.16 1188.54 75.672 1189.11 75.8C1189.72 75.928 1189.4 78.008 1187.06 78.008C1184.66 78.008 1184.76 75.384 1184.76 72.184V68.664C1184.76 68.312 1184.57 68.344 1184.09 68.344C1183.51 68.344 1183.38 67.64 1183.38 67.16C1183.38 65.176 1184.86 66.296 1185.82 65.208C1187.16 63.704 1187 63.448 1187.61 63.448C1188.02 63.448 1188.28 63.832 1188.28 64.248V65.592C1188.28 65.752 1188.41 65.88 1188.57 65.88C1188.82 65.88 1190.04 65.816 1190.04 66.84ZM1195.65 76.568H1193.83L1193.03 60.152H1196.45L1195.65 76.568ZM1192.74 81.272C1192.74 80.4827 1192.93 79.928 1193.32 79.608C1193.7 79.288 1194.17 79.128 1194.73 79.128C1195.26 79.128 1195.72 79.288 1196.1 79.608C1196.51 79.928 1196.71 80.4827 1196.71 81.272C1196.71 82.04 1196.51 82.5947 1196.1 82.936C1195.72 83.2773 1195.26 83.448 1194.73 83.448C1194.17 83.448 1193.7 83.2773 1193.32 82.936C1192.93 82.5947 1192.74 82.04 1192.74 81.272Z" fill="#FFECD2"/>
<path d="M992.078 1178.48L994.223 1178.29C994.324 1179.15 994.559 1179.86 994.926 1180.41C995.301 1180.96 995.879 1181.41 996.66 1181.75C997.441 1182.09 998.32 1182.25 999.297 1182.25C1000.16 1182.25 1000.93 1182.12 1001.59 1181.87C1002.26 1181.61 1002.75 1181.26 1003.07 1180.81C1003.4 1180.36 1003.56 1179.87 1003.56 1179.34C1003.56 1178.8 1003.41 1178.33 1003.09 1177.93C1002.78 1177.52 1002.27 1177.18 1001.55 1176.91C1001.09 1176.73 1000.07 1176.45 998.488 1176.08C996.91 1175.7 995.805 1175.34 995.172 1175C994.352 1174.57 993.738 1174.04 993.332 1173.41C992.934 1172.77 992.734 1172.05 992.734 1171.26C992.734 1170.39 992.98 1169.59 993.473 1168.84C993.965 1168.08 994.684 1167.5 995.629 1167.11C996.574 1166.72 997.625 1166.53 998.781 1166.53C1000.05 1166.53 1001.18 1166.73 1002.14 1167.15C1003.12 1167.55 1003.87 1168.16 1004.39 1168.95C1004.92 1169.75 1005.2 1170.65 1005.24 1171.66L1003.06 1171.82C1002.94 1170.74 1002.54 1169.92 1001.86 1169.36C1001.19 1168.81 1000.2 1168.53 998.875 1168.53C997.5 1168.53 996.496 1168.79 995.863 1169.29C995.238 1169.79 994.926 1170.4 994.926 1171.11C994.926 1171.73 995.148 1172.23 995.594 1172.63C996.031 1173.03 997.172 1173.44 999.016 1173.86C1000.87 1174.28 1002.14 1174.64 1002.82 1174.95C1003.82 1175.41 1004.56 1176 1005.04 1176.71C1005.52 1177.41 1005.75 1178.23 1005.75 1179.15C1005.75 1180.06 1005.49 1180.93 1004.97 1181.74C1004.45 1182.54 1003.69 1183.17 1002.71 1183.62C1001.73 1184.07 1000.63 1184.29 999.402 1184.29C997.848 1184.29 996.543 1184.07 995.488 1183.61C994.441 1183.16 993.617 1182.48 993.016 1181.57C992.422 1180.66 992.109 1179.63 992.078 1178.48ZM1017.11 1179.99L1019.29 1180.26C1018.95 1181.54 1018.31 1182.52 1017.38 1183.23C1016.45 1183.93 1015.26 1184.28 1013.82 1184.28C1012 1184.28 1010.55 1183.72 1009.48 1182.61C1008.42 1181.48 1007.89 1179.91 1007.89 1177.88C1007.89 1175.79 1008.43 1174.16 1009.5 1173.01C1010.58 1171.85 1011.98 1171.27 1013.7 1171.27C1015.36 1171.27 1016.72 1171.84 1017.78 1172.97C1018.83 1174.11 1019.36 1175.7 1019.36 1177.75C1019.36 1177.88 1019.36 1178.07 1019.35 1178.32H1010.07C1010.14 1179.68 1010.53 1180.73 1011.23 1181.46C1011.92 1182.18 1012.79 1182.55 1013.83 1182.55C1014.6 1182.55 1015.26 1182.34 1015.81 1181.94C1016.36 1181.53 1016.79 1180.88 1017.11 1179.99ZM1010.18 1176.58H1017.13C1017.04 1175.54 1016.77 1174.75 1016.34 1174.23C1015.66 1173.41 1014.79 1173.01 1013.72 1173.01C1012.75 1173.01 1011.94 1173.33 1011.27 1173.98C1010.62 1174.63 1010.25 1175.5 1010.18 1176.58ZM1030.47 1179.99L1032.65 1180.26C1032.3 1181.54 1031.67 1182.52 1030.74 1183.23C1029.81 1183.93 1028.62 1184.28 1027.18 1184.28C1025.36 1184.28 1023.91 1183.72 1022.84 1182.61C1021.78 1181.48 1021.25 1179.91 1021.25 1177.88C1021.25 1175.79 1021.79 1174.16 1022.86 1173.01C1023.94 1171.85 1025.34 1171.27 1027.06 1171.27C1028.72 1171.27 1030.08 1171.84 1031.14 1172.97C1032.19 1174.11 1032.72 1175.7 1032.72 1177.75C1032.72 1177.88 1032.71 1178.07 1032.71 1178.32H1023.43C1023.5 1179.68 1023.89 1180.73 1024.59 1181.46C1025.28 1182.18 1026.15 1182.55 1027.19 1182.55C1027.96 1182.55 1028.62 1182.34 1029.17 1181.94C1029.71 1181.53 1030.15 1180.88 1030.47 1179.99ZM1023.54 1176.58H1030.49C1030.4 1175.54 1030.13 1174.75 1029.7 1174.23C1029.02 1173.41 1028.15 1173.01 1027.08 1173.01C1026.11 1173.01 1025.3 1173.33 1024.63 1173.98C1023.98 1174.63 1023.61 1175.5 1023.54 1176.58ZM1042.26 1184V1166.82H1048.74C1049.88 1166.82 1050.75 1166.88 1051.35 1166.98C1052.2 1167.12 1052.9 1167.39 1053.47 1167.79C1054.04 1168.18 1054.5 1168.73 1054.84 1169.45C1055.2 1170.16 1055.37 1170.94 1055.37 1171.79C1055.37 1173.25 1054.91 1174.49 1053.98 1175.5C1053.05 1176.51 1051.37 1177.02 1048.94 1177.02H1044.53V1184H1042.26ZM1044.53 1174.99H1048.97C1050.44 1174.99 1051.48 1174.71 1052.1 1174.17C1052.72 1173.62 1053.03 1172.85 1053.03 1171.86C1053.03 1171.14 1052.84 1170.53 1052.48 1170.02C1052.12 1169.5 1051.64 1169.16 1051.05 1169C1050.66 1168.9 1049.96 1168.85 1048.93 1168.85H1044.53V1174.99ZM1057.97 1184V1171.55H1059.87V1173.44C1060.36 1172.56 1060.8 1171.98 1061.21 1171.7C1061.62 1171.41 1062.07 1171.27 1062.57 1171.27C1063.28 1171.27 1064 1171.5 1064.73 1171.95L1064.01 1173.91C1063.49 1173.61 1062.98 1173.45 1062.46 1173.45C1062 1173.45 1061.59 1173.59 1061.22 1173.88C1060.85 1174.15 1060.59 1174.53 1060.43 1175.02C1060.2 1175.77 1060.08 1176.59 1060.08 1177.48V1184H1057.97ZM1065.2 1177.78C1065.2 1175.47 1065.84 1173.77 1067.12 1172.66C1068.2 1171.73 1069.5 1171.27 1071.04 1171.27C1072.75 1171.27 1074.15 1171.84 1075.23 1172.96C1076.32 1174.08 1076.86 1175.62 1076.86 1177.6C1076.86 1179.2 1076.62 1180.46 1076.14 1181.39C1075.66 1182.3 1074.96 1183.01 1074.04 1183.52C1073.12 1184.03 1072.12 1184.28 1071.04 1184.28C1069.3 1184.28 1067.89 1183.72 1066.81 1182.61C1065.74 1181.49 1065.2 1179.88 1065.2 1177.78ZM1067.37 1177.78C1067.37 1179.37 1067.72 1180.57 1068.41 1181.36C1069.11 1182.15 1069.98 1182.55 1071.04 1182.55C1072.09 1182.55 1072.96 1182.15 1073.65 1181.35C1074.35 1180.55 1074.7 1179.34 1074.7 1177.71C1074.7 1176.17 1074.34 1175 1073.64 1174.21C1072.95 1173.42 1072.08 1173.02 1071.04 1173.02C1069.98 1173.02 1069.11 1173.41 1068.41 1174.2C1067.72 1174.99 1067.37 1176.18 1067.37 1177.78ZM1079.34 1169.27V1166.82H1081.45V1169.27H1079.34ZM1076.66 1188.83L1077.06 1187.04C1077.48 1187.14 1077.82 1187.2 1078.06 1187.2C1078.49 1187.2 1078.81 1187.05 1079.02 1186.77C1079.23 1186.48 1079.34 1185.77 1079.34 1184.63V1171.55H1081.45V1184.68C1081.45 1186.21 1081.25 1187.28 1080.85 1187.88C1080.34 1188.66 1079.5 1189.05 1078.32 1189.05C1077.75 1189.05 1077.2 1188.98 1076.66 1188.83ZM1093.21 1179.99L1095.39 1180.26C1095.05 1181.54 1094.41 1182.52 1093.48 1183.23C1092.55 1183.93 1091.36 1184.28 1089.92 1184.28C1088.1 1184.28 1086.65 1183.72 1085.58 1182.61C1084.52 1181.48 1083.99 1179.91 1083.99 1177.88C1083.99 1175.79 1084.53 1174.16 1085.61 1173.01C1086.68 1171.85 1088.08 1171.27 1089.8 1171.27C1091.46 1171.27 1092.82 1171.84 1093.88 1172.97C1094.93 1174.11 1095.46 1175.7 1095.46 1177.75C1095.46 1177.88 1095.46 1178.07 1095.45 1178.32H1086.17C1086.25 1179.68 1086.63 1180.73 1087.33 1181.46C1088.02 1182.18 1088.89 1182.55 1089.93 1182.55C1090.7 1182.55 1091.36 1182.34 1091.91 1181.94C1092.46 1181.53 1092.89 1180.88 1093.21 1179.99ZM1086.29 1176.58H1093.23C1093.14 1175.54 1092.88 1174.75 1092.44 1174.23C1091.77 1173.41 1090.89 1173.01 1089.82 1173.01C1088.86 1173.01 1088.04 1173.33 1087.38 1173.98C1086.72 1174.63 1086.36 1175.5 1086.29 1176.58ZM1106.17 1179.44L1108.25 1179.71C1108.02 1181.14 1107.44 1182.26 1106.5 1183.07C1105.57 1183.88 1104.43 1184.28 1103.07 1184.28C1101.36 1184.28 1099.99 1183.73 1098.95 1182.62C1097.92 1181.5 1097.41 1179.9 1097.41 1177.82C1097.41 1176.48 1097.63 1175.3 1098.07 1174.3C1098.52 1173.29 1099.2 1172.54 1100.1 1172.04C1101.02 1171.53 1102.01 1171.27 1103.08 1171.27C1104.43 1171.27 1105.54 1171.62 1106.39 1172.3C1107.25 1172.98 1107.8 1173.95 1108.05 1175.21L1106 1175.53C1105.8 1174.69 1105.45 1174.06 1104.95 1173.64C1104.46 1173.22 1103.86 1173.01 1103.16 1173.01C1102.1 1173.01 1101.23 1173.39 1100.57 1174.16C1099.91 1174.91 1099.57 1176.12 1099.57 1177.77C1099.57 1179.44 1099.89 1180.65 1100.54 1181.41C1101.18 1182.17 1102.01 1182.55 1103.04 1182.55C1103.87 1182.55 1104.56 1182.29 1105.12 1181.79C1105.67 1181.28 1106.02 1180.5 1106.17 1179.44ZM1114.66 1182.11L1114.96 1183.98C1114.37 1184.1 1113.84 1184.16 1113.37 1184.16C1112.6 1184.16 1112.01 1184.04 1111.59 1183.8C1111.16 1183.56 1110.87 1183.24 1110.7 1182.85C1110.52 1182.45 1110.44 1181.62 1110.44 1180.36V1173.2H1108.89V1171.55H1110.44V1168.47L1112.54 1167.21V1171.55H1114.66V1173.2H1112.54V1180.47C1112.54 1181.07 1112.57 1181.46 1112.64 1181.63C1112.72 1181.8 1112.84 1181.94 1113 1182.04C1113.18 1182.14 1113.42 1182.2 1113.73 1182.2C1113.96 1182.2 1114.27 1182.17 1114.66 1182.11Z" fill="#FFECD2"/>
</g>
<defs>
<clipPath id="clip0_104_129">
<rect width="1280" height="4198" fill="white"/>
</clipPath>
<clipPath id="clip1_104_129">
<rect width="67.17" height="43.35" fill="white" transform="translate(65 42)"/>
</clipPath>
<clipPath id="clip2_104_129">
<rect width="54.17" height="45.6" fill="white" transform="translate(635 46)"/>
</clipPath>
</defs>
</svg>
