<svg width="55" height="46" viewBox="0 0 55 46" fill="none" xmlns="http://www.w3.org/2000/svg">
<g clip-path="url(#clip0_1_37)">
<path d="M0.379825 9.08006C-0.350175 6.40006 -0.180175 2.92006 2.27982 1.13006C4.80982 -0.719937 9.13982 -0.249937 11.1298 2.23006C12.9498 4.42006 12.4898 7.39006 11.5998 9.83006C10.4298 13.1601 7.02982 14.8101 3.58982 15.6901C1.94982 16.1101 0.509825 14.6801 0.709825 13.0001C0.709825 12.9901 0.709825 12.9801 0.709825 12.9701C0.859825 11.6101 0.729825 10.3001 0.379825 9.09006V9.08006Z" fill="#570D1B"/>
<path d="M54.1701 25.28V44.77C54.1701 45.23 53.8001 45.6 53.3401 45.6H42.5801C42.1201 45.6 41.7501 45.23 41.7501 44.77V20.3C41.7501 16.55 40.2501 14.57 37.7901 14.57C35.3301 14.57 33.9301 16.54 32.5501 18.18C32.3401 18.43 32.3001 18.78 32.4401 19.08C33.3101 20.88 33.8301 22.96 33.8301 25.28V44.77C33.8301 45.23 33.4601 45.6 33.0001 45.6H22.2401C21.7801 45.6 21.4101 45.23 21.4101 44.77V20.3C21.4101 16.55 19.9101 14.57 17.3201 14.57C15.6101 14.57 14.6701 15.45 13.7301 16.44C13.5801 16.59 13.5001 16.8 13.5001 17.01V44.77C13.5001 45.23 13.1301 45.6 12.6701 45.6H1.95012C1.49012 45.6 1.12012 45.23 1.12012 44.77V18.65C1.12012 18.26 1.40012 17.93 1.78012 17.85C5.70012 17.03 9.20012 15.51 12.2301 13.28C12.7701 12.88 13.5301 13.28 13.5301 13.95C13.5301 14.63 14.3101 15.03 14.8401 14.62C16.3701 13.43 18.6601 12.26 21.7101 12.26C25.5801 12.26 29.0401 14.14 31.2801 17.18C31.5901 17.6 32.2201 17.62 32.5601 17.21C34.8701 14.46 37.6201 12.26 41.9001 12.26C48.7201 12.26 54.1701 17.72 54.1701 25.28Z" fill="#570D1B"/>
</g>
<defs>
<clipPath id="clip0_1_37">
<rect width="54.17" height="45.6" fill="white"/>
</clipPath>
</defs>
</svg>
