<svg width="401" height="39" viewBox="0 0 401 39" fill="none" xmlns="http://www.w3.org/2000/svg">
<path d="M391.38 12.228H8.98001C5.12506 12.228 2 15.3531 2 19.208C2 23.063 5.12506 26.188 8.98001 26.188H391.38C395.235 26.188 398.36 23.063 398.36 19.208C398.36 15.3531 395.235 12.228 391.38 12.228Z" fill="#570D1B" stroke="#F4B14E" stroke-width="4" stroke-miterlimit="10"/>
<path d="M226.22 21.8288C224.62 15.9588 225 8.36879 230.36 4.45879C235.89 0.418788 245.34 1.44876 249.69 6.86876C253.66 11.6488 252.65 18.1288 250.72 23.4588C248.17 30.7388 240.74 34.3288 233.23 36.2588C229.64 37.1788 226.5 34.0488 226.93 30.3788C226.93 30.3488 226.93 30.3288 226.93 30.2988C227.25 27.3388 226.97 24.4588 226.21 21.8288H226.22Z" fill="#570D1B" stroke="#F4B14E" stroke-width="4" stroke-miterlimit="10"/>
</svg>
