<svg width="414" height="149" viewBox="0 0 414 149" fill="none" xmlns="http://www.w3.org/2000/svg">
<rect x="1.5" y="1.5" width="411" height="146" rx="22.5" fill="#581E3B" stroke="#570D1B" stroke-width="3"/>
<path d="M31.207 108.293L32.2266 103.301H30.2461V101.555H32.5781L33.4453 97.3008H30.2461V95.5547H33.7969L34.8164 90.5273H36.5742L35.5547 95.5547H39.2461L40.2656 90.5273H42.0352L41.0156 95.5547H43.043V97.3008H40.6641L39.7852 101.555H43.043V103.301H39.4336L38.4141 108.293H36.6562L37.6641 103.301H33.9844L32.9648 108.293H31.207ZM34.3359 101.555H38.0156L38.8945 97.3008H35.2031L34.3359 101.555ZM44.3555 103.5L46.5703 103.312C46.7344 104.391 47.1133 105.203 47.707 105.75C48.3086 106.289 49.0312 106.559 49.875 106.559C50.8906 106.559 51.75 106.176 52.4531 105.41C53.1562 104.645 53.5078 103.629 53.5078 102.363C53.5078 101.16 53.168 100.211 52.4883 99.5156C51.8164 98.8203 50.9336 98.4727 49.8398 98.4727C49.1602 98.4727 48.5469 98.6289 48 98.9414C47.4531 99.2461 47.0234 99.6445 46.7109 100.137L44.7305 99.8789L46.3945 91.0547H54.9375V93.0703H48.082L47.1562 97.6875C48.1875 96.9688 49.2695 96.6094 50.4023 96.6094C51.9023 96.6094 53.168 97.1289 54.1992 98.168C55.2305 99.207 55.7461 100.543 55.7461 102.176C55.7461 103.73 55.293 105.074 54.3867 106.207C53.2852 107.598 51.7812 108.293 49.875 108.293C48.3125 108.293 47.0352 107.855 46.043 106.98C45.0586 106.105 44.4961 104.945 44.3555 103.5ZM60.9609 98.6836C60.0859 98.3633 59.4375 97.9062 59.0156 97.3125C58.5938 96.7188 58.3828 96.0078 58.3828 95.1797C58.3828 93.9297 58.832 92.8789 59.7305 92.0273C60.6289 91.1758 61.8242 90.75 63.3164 90.75C64.8164 90.75 66.0234 91.1875 66.9375 92.0625C67.8516 92.9297 68.3086 93.9883 68.3086 95.2383C68.3086 96.0352 68.0977 96.7305 67.6758 97.3242C67.2617 97.9102 66.6289 98.3633 65.7773 98.6836C66.832 99.0273 67.6328 99.582 68.1797 100.348C68.7344 101.113 69.0117 102.027 69.0117 103.09C69.0117 104.559 68.4922 105.793 67.4531 106.793C66.4141 107.793 65.0469 108.293 63.3516 108.293C61.6562 108.293 60.2891 107.793 59.25 106.793C58.2109 105.785 57.6914 104.531 57.6914 103.031C57.6914 101.914 57.9727 100.98 58.5352 100.23C59.1055 99.4727 59.9141 98.957 60.9609 98.6836ZM60.5391 95.1094C60.5391 95.9219 60.8008 96.5859 61.3242 97.1016C61.8477 97.6172 62.5273 97.875 63.3633 97.875C64.1758 97.875 64.8398 97.6211 65.3555 97.1133C65.8789 96.5977 66.1406 95.9688 66.1406 95.2266C66.1406 94.4531 65.8711 93.8047 65.332 93.2812C64.8008 92.75 64.1367 92.4844 63.3398 92.4844C62.5352 92.4844 61.8672 92.7422 61.3359 93.2578C60.8047 93.7734 60.5391 94.3906 60.5391 95.1094ZM59.8594 103.043C59.8594 103.645 60 104.227 60.2812 104.789C60.5703 105.352 60.9961 105.789 61.5586 106.102C62.1211 106.406 62.7266 106.559 63.375 106.559C64.3828 106.559 65.2148 106.234 65.8711 105.586C66.5273 104.938 66.8555 104.113 66.8555 103.113C66.8555 102.098 66.5156 101.258 65.8359 100.594C65.1641 99.9297 64.3203 99.5977 63.3047 99.5977C62.3125 99.5977 61.4883 99.9258 60.832 100.582C60.1836 101.238 59.8594 102.059 59.8594 103.043ZM79.0195 108H76.9102V94.5586C76.4023 95.043 75.7344 95.5273 74.9062 96.0117C74.0859 96.4961 73.3477 96.8594 72.6914 97.1016V95.0625C73.8711 94.5078 74.9023 93.8359 75.7852 93.0469C76.668 92.2578 77.293 91.4922 77.6602 90.75H79.0195V108ZM85.3359 108V90.8203H97.7578V92.8477H87.6094V98.1094H97.1133V100.125H87.6094V105.973H98.1562V108H85.3359ZM100.453 103.465L102.562 103.184C102.805 104.379 103.215 105.242 103.793 105.773C104.379 106.297 105.09 106.559 105.926 106.559C106.918 106.559 107.754 106.215 108.434 105.527C109.121 104.84 109.465 103.988 109.465 102.973C109.465 102.004 109.148 101.207 108.516 100.582C107.883 99.9492 107.078 99.6328 106.102 99.6328C105.703 99.6328 105.207 99.7109 104.613 99.8672L104.848 98.0156C104.988 98.0312 105.102 98.0391 105.188 98.0391C106.086 98.0391 106.895 97.8047 107.613 97.3359C108.332 96.8672 108.691 96.1445 108.691 95.168C108.691 94.3945 108.43 93.7539 107.906 93.2461C107.383 92.7383 106.707 92.4844 105.879 92.4844C105.059 92.4844 104.375 92.7422 103.828 93.2578C103.281 93.7734 102.93 94.5469 102.773 95.5781L100.664 95.2031C100.922 93.7891 101.508 92.6953 102.422 91.9219C103.336 91.1406 104.473 90.75 105.832 90.75C106.77 90.75 107.633 90.9531 108.422 91.3594C109.211 91.7578 109.812 92.3047 110.227 93C110.648 93.6953 110.859 94.4336 110.859 95.2148C110.859 95.957 110.66 96.6328 110.262 97.2422C109.863 97.8516 109.273 98.3359 108.492 98.6953C109.508 98.9297 110.297 99.418 110.859 100.16C111.422 100.895 111.703 101.816 111.703 102.926C111.703 104.426 111.156 105.699 110.062 106.746C108.969 107.785 107.586 108.305 105.914 108.305C104.406 108.305 103.152 107.855 102.152 106.957C101.16 106.059 100.594 104.895 100.453 103.465ZM114.562 108V90.8203H121.008C122.32 90.8203 123.371 90.9961 124.16 91.3477C124.957 91.6914 125.578 92.2266 126.023 92.9531C126.477 93.6719 126.703 94.4258 126.703 95.2148C126.703 95.9492 126.504 96.6406 126.105 97.2891C125.707 97.9375 125.105 98.4609 124.301 98.8594C125.34 99.1641 126.137 99.6836 126.691 100.418C127.254 101.152 127.535 102.02 127.535 103.02C127.535 103.824 127.363 104.574 127.02 105.27C126.684 105.957 126.266 106.488 125.766 106.863C125.266 107.238 124.637 107.523 123.879 107.719C123.129 107.906 122.207 108 121.113 108H114.562ZM116.836 98.0391H120.551C121.559 98.0391 122.281 97.9727 122.719 97.8398C123.297 97.668 123.73 97.3828 124.02 96.9844C124.316 96.5859 124.465 96.0859 124.465 95.4844C124.465 94.9141 124.328 94.4141 124.055 93.9844C123.781 93.5469 123.391 93.25 122.883 93.0938C122.375 92.9297 121.504 92.8477 120.27 92.8477H116.836V98.0391ZM116.836 105.973H121.113C121.848 105.973 122.363 105.945 122.66 105.891C123.184 105.797 123.621 105.641 123.973 105.422C124.324 105.203 124.613 104.887 124.84 104.473C125.066 104.051 125.18 103.566 125.18 103.02C125.18 102.379 125.016 101.824 124.688 101.355C124.359 100.879 123.902 100.547 123.316 100.359C122.738 100.164 121.902 100.066 120.809 100.066H116.836V105.973Z" fill="#FFECD2"/>
</svg>
