<svg width="1079" height="314" viewBox="0 0 1079 314" fill="none" xmlns="http://www.w3.org/2000/svg">
<rect y="2" width="1079" height="309" fill="#F5B14F"/>
<path d="M850.595 159.834C877.922 179.942 849.048 238.205 782.021 238.205C736.648 238.205 699.525 193.863 699.525 138.695C699.525 84.0415 736.648 39.7002 782.021 39.7002C805.738 39.7002 827.393 51.0433 841.83 70.636C865.032 101.572 857.813 142.819 832.549 142.819C817.081 142.819 771.193 143.851 750.569 144.366H733.555L751.601 149.007C755.725 166.021 765.522 178.911 782.021 178.911C827.909 178.911 826.362 142.304 850.595 159.834ZM782.021 77.3387C765.522 77.3387 754.694 94.3534 750.569 114.462H811.41C811.41 85.5883 792.333 77.3387 782.021 77.3387Z" fill="#FFE8C8" fill-opacity="0.45"/>
<path d="M695.493 54.6532C695.493 81.4642 678.478 78.8862 672.291 78.8862H652.699L667.651 81.4642C667.135 82.4954 667.135 84.0422 667.135 84.0422L666.62 141.273C666.62 188.708 671.26 196.958 680.541 199.02C690.337 201.082 685.181 234.596 647.543 234.596C608.873 234.596 610.42 192.317 610.42 140.758V84.0422C610.42 78.3706 607.326 78.8862 599.592 78.8862C590.311 78.8862 588.249 67.5431 588.249 59.8091C588.249 27.8422 611.966 45.8881 627.434 28.3578C649.089 4.12475 646.511 0 656.308 0C663.01 0 667.135 6.18714 667.135 12.8899V34.5449C667.135 37.1229 669.198 39.1853 671.776 39.1853C675.9 39.1853 695.493 38.1541 695.493 54.6532Z" fill="#FFE8C8" fill-opacity="0.45"/>
<path d="M495.667 39.7002C544.133 39.7002 583.834 84.0415 583.834 138.695C583.834 193.863 544.133 238.205 495.667 238.205C446.686 238.205 406.985 193.863 406.985 138.695C406.985 84.0415 446.686 39.7002 495.667 39.7002ZM524.541 207.269C538.462 201.082 536.915 166.021 520.932 128.383C504.948 90.7442 480.715 64.9644 466.794 70.636C465.763 71.1516 464.732 71.6672 464.216 72.1828C458.029 76.3075 450.295 86.1038 448.748 110.852C448.748 110.852 452.357 99.5093 457.513 89.713C455.966 105.181 460.607 126.836 469.888 149.522C485.871 187.161 510.104 212.94 524.541 207.269Z" fill="#FFE8C8" fill-opacity="0.45"/>
<path d="M393.798 199.02C403.594 201.082 399.985 234.596 367.502 234.596C352.55 234.596 343.269 228.409 337.598 219.128C340.691 210.363 342.238 192.833 342.238 192.833C340.691 204.176 334.504 212.941 334.504 212.941C326.255 225.315 312.849 234.596 289.132 234.596C225.198 234.596 226.229 186.646 226.229 169.631V123.743C226.229 94.3541 214.37 110.853 206.121 93.8385C197.356 75.7926 238.603 43.8257 259.227 43.8257C274.179 43.8257 279.851 58.778 279.851 73.7303C279.851 116.525 279.851 165.506 279.851 165.506C279.851 183.037 282.945 204.692 301.506 204.692C321.614 204.692 327.286 184.583 327.286 165.506V123.743C327.286 94.3541 315.427 110.853 307.178 93.8385C298.412 75.7926 339.66 43.8257 360.284 43.8257C375.236 43.8257 380.908 58.778 380.908 73.7303C380.908 116.525 380.908 165.506 380.908 165.506C380.908 192.833 386.579 197.473 393.798 199.02Z" fill="#FFE8C8" fill-opacity="0.45"/>
<path d="M206.378 256.769C214.112 281.517 196.582 314 166.677 314C122.851 314 107.383 271.205 100.681 233.051C94.4935 234.083 88.3064 234.598 81.6036 234.598C24.888 234.598 -21 184.07 -21 121.167C-21 58.7799 24.888 8.25146 81.6036 8.25146C138.835 8.25146 184.723 58.7799 184.723 121.167C184.723 159.321 167.708 193.35 141.413 213.974C148.631 228.927 158.943 248.519 170.802 250.066C196.582 254.191 199.16 233.567 206.378 256.769ZM129.554 186.132C142.96 169.117 139.35 133.541 119.758 99.512C97.5871 60.3267 62.011 38.6716 40.8715 51.0459C21.2789 62.3891 21.2789 99.512 39.8403 136.119C35.7156 147.462 36.7468 162.415 36.7468 162.415C37.778 150.04 42.9339 141.791 42.9339 141.791C47.5743 133.541 55.3082 126.839 66.1357 125.292C100.681 119.62 116.149 153.134 129.554 186.132ZM77.9944 183.039C83.666 187.163 89.8532 190.772 95.5247 192.835C91.9155 161.383 88.3064 137.15 69.7449 141.791C59.433 144.884 62.5266 168.086 77.9944 183.039Z" fill="#FFE8C8" fill-opacity="0.45"/>
</svg>
