<svg width="404" height="404" viewBox="0 0 404 404" fill="none" xmlns="http://www.w3.org/2000/svg">
<path d="M196.609 4.78864C197.368 -1.59621 206.632 -1.59621 207.391 4.78864L213.746 58.3518C221.953 127.516 276.484 182.047 345.648 190.254L399.211 196.609C405.596 197.368 405.596 206.632 399.211 207.391L345.648 213.746C276.484 221.953 221.953 276.484 213.746 345.648L207.391 399.211C206.632 405.596 197.368 405.596 196.609 399.211L190.254 345.648C182.047 276.484 127.516 221.953 58.3518 213.746L4.78864 207.391C-1.59621 206.632 -1.59621 197.368 4.78864 196.609L58.3518 190.254C127.516 182.047 182.047 127.516 190.254 58.3518L196.609 4.78864Z" fill="#570D1B"/>
</svg>
