<svg width="401" height="39" viewBox="0 0 401 39" fill="none" xmlns="http://www.w3.org/2000/svg">
<path d="M391.38 12.2183H8.98001C5.12506 12.2183 2 15.3433 2 19.1983C2 23.0532 5.12506 26.1783 8.98001 26.1783H391.38C395.235 26.1783 398.36 23.0532 398.36 19.1983C398.36 15.3433 395.235 12.2183 391.38 12.2183Z" fill="#570D1B" stroke="#F4B14E" stroke-width="4" stroke-miterlimit="10"/>
<path d="M247.22 21.8288C245.62 15.9588 246 8.36878 251.36 4.45878C256.89 0.418777 266.34 1.44878 270.69 6.86878C274.66 11.6488 273.65 18.1288 271.72 23.4588C269.17 30.7388 261.74 34.3288 254.23 36.2588C250.64 37.1788 247.5 34.0488 247.93 30.3788C247.93 30.3488 247.93 30.3288 247.93 30.2988C248.25 27.3388 247.97 24.4588 247.21 21.8288H247.22Z" fill="#570D1B" stroke="#F4B14E" stroke-width="4" stroke-miterlimit="10"/>
</svg>
